solid effluent(Meshed)
 facet normal 0.500001 0 -0.866025
  outer loop
   vertex 14.4519 1 1.12428
   vertex 14.5818 -0 1.19928
   vertex 14.4519 -0 1.12428
  endloop
 endfacet
 facet normal 0.500001 0 -0.866025
  outer loop
   vertex 14.4519 1 1.12428
   vertex 14.5818 1 1.19928
   vertex 14.5818 -0 1.19928
  endloop
 endfacet
 facet normal -0.500001 -0 -0.866025
  outer loop
   vertex 15.4182 1 1.19928
   vertex 15.5481 -0 1.12428
   vertex 15.4182 -0 1.19928
  endloop
 endfacet
 facet normal -0.500001 0 -0.866025
  outer loop
   vertex 15.4182 1 1.19928
   vertex 15.5481 1 1.12428
   vertex 15.5481 -0 1.12428
  endloop
 endfacet
endsolid effluent(Meshed)
