solid frontal(Meshed)
 facet normal -0 -1 0
  outer loop
   vertex 14.7706 -0 0.0947397
   vertex 14.7667 -0 0.0987674
   vertex 0 0 0
  endloop
 endfacet
 facet normal 0 -1 0
  outer loop
   vertex 0 0 0
   vertex 14.7747 -0 0.0907817
   vertex 14.7706 -0 0.0947397
  endloop
 endfacet
 facet normal -0 -1 0
  outer loop
   vertex 14.7667 -0 0.0987674
   vertex 14.7628 -0 0.102864
   vertex 0 0 0
  endloop
 endfacet
 facet normal 0 -1 0
  outer loop
   vertex 0 0 0
   vertex 14.7788 -0 0.0868948
   vertex 14.7747 -0 0.0907817
  endloop
 endfacet
 facet normal -0 -1 0
  outer loop
   vertex 14.7628 -0 0.102864
   vertex 14.7589 -0 0.107027
   vertex 0 0 0
  endloop
 endfacet
 facet normal 0 -1 0
  outer loop
   vertex 0 0 0
   vertex 14.783 -0 0.08308
   vertex 14.7788 -0 0.0868948
  endloop
 endfacet
 facet normal -0 -1 0
  outer loop
   vertex 14.7589 -0 0.107027
   vertex 14.7552 -0 0.111257
   vertex 0 0 0
  endloop
 endfacet
 facet normal 0 -1 0
  outer loop
   vertex 0 0 0
   vertex 14.7872 -0 0.0793385
   vertex 14.783 -0 0.08308
  endloop
 endfacet
 facet normal -0 -1 0
  outer loop
   vertex 14.7552 -0 0.111257
   vertex 14.7515 -0 0.115552
   vertex 0 0 0
  endloop
 endfacet
 facet normal 0 -1 0
  outer loop
   vertex 0 0 0
   vertex 14.7915 -0 0.0756715
   vertex 14.7872 -0 0.0793385
  endloop
 endfacet
 facet normal -0 -1 0
  outer loop
   vertex 14.7515 -0 0.115552
   vertex 14.7479 -0 0.11991
   vertex 0 0 0
  endloop
 endfacet
 facet normal 0 -1 0
  outer loop
   vertex 0 0 0
   vertex 14.7959 -0 0.07208
   vertex 14.7915 -0 0.0756715
  endloop
 endfacet
 facet normal -0 -1 0
  outer loop
   vertex 14.7479 -0 0.11991
   vertex 14.7444 -0 0.12433
   vertex 0 0 0
  endloop
 endfacet
 facet normal 0 -1 0
  outer loop
   vertex 0 0 0
   vertex 14.8003 -0 0.0685652
   vertex 14.7959 -0 0.07208
  endloop
 endfacet
 facet normal -0 -1 0
  outer loop
   vertex 14.7444 -0 0.12433
   vertex 14.7409 -0 0.128811
   vertex 0 0 0
  endloop
 endfacet
 facet normal 0 -1 0
  outer loop
   vertex 0 0 0
   vertex 14.8048 -0 0.0651282
   vertex 14.8003 -0 0.0685652
  endloop
 endfacet
 facet normal -0 -1 0
  outer loop
   vertex 14.7409 -0 0.128811
   vertex 14.7375 -0 0.133351
   vertex 0 0 0
  endloop
 endfacet
 facet normal 0 -1 0
  outer loop
   vertex 0 0 0
   vertex 14.8094 -0 0.0617699
   vertex 14.8048 -0 0.0651282
  endloop
 endfacet
 facet normal -0 -1 0
  outer loop
   vertex 14.7375 -0 0.133351
   vertex 14.7342 -0 0.13795
   vertex 0 0 0
  endloop
 endfacet
 facet normal 0 -1 0
  outer loop
   vertex 0 0 0
   vertex 14.814 -0 0.0584913
   vertex 14.8094 -0 0.0617699
  endloop
 endfacet
 facet normal -0 -1 0
  outer loop
   vertex 14.7342 -0 0.13795
   vertex 14.731 -0 0.142605
   vertex 0 0 0
  endloop
 endfacet
 facet normal 0 -1 0
  outer loop
   vertex 0 0 0
   vertex 14.8187 -0 0.0552936
   vertex 14.814 -0 0.0584913
  endloop
 endfacet
 facet normal -0 -1 0
  outer loop
   vertex 14.731 -0 0.142605
   vertex 14.7279 -0 0.147315
   vertex 0 0 0
  endloop
 endfacet
 facet normal 0 -1 0
  outer loop
   vertex 0 0 0
   vertex 14.8234 -0 0.0521776
   vertex 14.8187 -0 0.0552936
  endloop
 endfacet
 facet normal -0 -1 0
  outer loop
   vertex 14.7279 -0 0.147315
   vertex 14.7248 -0 0.15208
   vertex 0 0 0
  endloop
 endfacet
 facet normal 0 -1 0
  outer loop
   vertex 0 0 0
   vertex 14.8282 -0 0.0491443
   vertex 14.8234 -0 0.0521776
  endloop
 endfacet
 facet normal -0 -1 0
  outer loop
   vertex 14.7248 -0 0.15208
   vertex 14.7219 -0 0.156896
   vertex 0 0 0
  endloop
 endfacet
 facet normal 0 -1 0
  outer loop
   vertex 0 0 0
   vertex 14.833 -0 0.0461946
   vertex 14.8282 -0 0.0491443
  endloop
 endfacet
 facet normal -0 -1 0
  outer loop
   vertex 14.7219 -0 0.156896
   vertex 14.719 -0 0.161764
   vertex 0 0 0
  endloop
 endfacet
 facet normal 0 -1 0
  outer loop
   vertex 0 0 0
   vertex 14.8379 -0 0.0433294
   vertex 14.833 -0 0.0461946
  endloop
 endfacet
 facet normal -0 -1 0
  outer loop
   vertex 14.719 -0 0.161764
   vertex 14.7162 -0 0.166681
   vertex 0 0 0
  endloop
 endfacet
 facet normal 0 -1 0
  outer loop
   vertex 0 0 0
   vertex 14.8428 -0 0.0405495
   vertex 14.8379 -0 0.0433294
  endloop
 endfacet
 facet normal -0 -1 0
  outer loop
   vertex 14.7162 -0 0.166681
   vertex 14.7135 -0 0.171646
   vertex 0 0 0
  endloop
 endfacet
 facet normal 0 -1 0
  outer loop
   vertex 0 0 0
   vertex 14.8478 -0 0.0378559
   vertex 14.8428 -0 0.0405495
  endloop
 endfacet
 facet normal -0 -1 0
  outer loop
   vertex 14.7135 -0 0.171646
   vertex 14.7108 -0 0.176658
   vertex 0 0 0
  endloop
 endfacet
 facet normal 0 -1 0
  outer loop
   vertex 0 0 0
   vertex 14.8528 -0 0.0352493
   vertex 14.8478 -0 0.0378559
  endloop
 endfacet
 facet normal -0 -1 0
  outer loop
   vertex 14.7108 -0 0.176658
   vertex 14.7083 -0 0.181715
   vertex 0 0 0
  endloop
 endfacet
 facet normal 0 -1 0
  outer loop
   vertex 0 0 0
   vertex 14.8579 -0 0.0327306
   vertex 14.8528 -0 0.0352493
  endloop
 endfacet
 facet normal -0 -1 0
  outer loop
   vertex 14.7083 -0 0.181715
   vertex 14.7058 -0 0.186815
   vertex 0 0 0
  endloop
 endfacet
 facet normal 0 -1 0
  outer loop
   vertex 0 0 0
   vertex 14.863 -0 0.0303004
   vertex 14.8579 -0 0.0327306
  endloop
 endfacet
 facet normal -0 -1 0
  outer loop
   vertex 14.7058 -0 0.186815
   vertex 14.7035 -0 0.191956
   vertex 0 0 0
  endloop
 endfacet
 facet normal 0 -1 0
  outer loop
   vertex 0 0 0
   vertex 14.8681 -0 0.0279595
   vertex 14.863 -0 0.0303004
  endloop
 endfacet
 facet normal -0 -1 0
  outer loop
   vertex 14.7035 -0 0.191956
   vertex 14.7012 -0 0.197139
   vertex 0 0 0
  endloop
 endfacet
 facet normal 0 -1 0
  outer loop
   vertex 0 0 0
   vertex 14.8733 -0 0.0257087
   vertex 14.8681 -0 0.0279595
  endloop
 endfacet
 facet normal -0 -1 0
  outer loop
   vertex 14.7012 -0 0.197139
   vertex 14.699 -0 0.20236
   vertex 0 0 0
  endloop
 endfacet
 facet normal 0 -1 0
  outer loop
   vertex 0 0 0
   vertex 14.8785 -0 0.0235486
   vertex 14.8733 -0 0.0257087
  endloop
 endfacet
 facet normal -0 -1 0
  outer loop
   vertex 14.699 -0 0.20236
   vertex 14.6969 -0 0.207618
   vertex 0 0 0
  endloop
 endfacet
 facet normal 0 -1 0
  outer loop
   vertex 0 0 0
   vertex 14.8838 -0 0.0214798
   vertex 14.8785 -0 0.0235486
  endloop
 endfacet
 facet normal -0 -1 0
  outer loop
   vertex 14.6969 -0 0.207618
   vertex 14.6949 -0 0.212912
   vertex 0 0 0
  endloop
 endfacet
 facet normal 0 -1 0
  outer loop
   vertex 0 0 0
   vertex 14.8891 -0 0.019503
   vertex 14.8838 -0 0.0214798
  endloop
 endfacet
 facet normal -0 -1 0
  outer loop
   vertex 14.6949 -0 0.212912
   vertex 14.693 -0 0.218239
   vertex 0 0 0
  endloop
 endfacet
 facet normal 0 -1 0
  outer loop
   vertex 0 0 0
   vertex 14.8944 -0 0.0176189
   vertex 14.8891 -0 0.019503
  endloop
 endfacet
 facet normal -0 -1 0
  outer loop
   vertex 14.693 -0 0.218239
   vertex 14.6912 -0 0.223599
   vertex 0 0 0
  endloop
 endfacet
 facet normal 0 -1 0
  outer loop
   vertex 0 0 0
   vertex 14.8998 -0 0.0158279
   vertex 14.8944 -0 0.0176189
  endloop
 endfacet
 facet normal -0 -1 0
  outer loop
   vertex 14.6912 -0 0.223599
   vertex 14.6895 -0 0.22899
   vertex 0 0 0
  endloop
 endfacet
 facet normal 0 -1 0
  outer loop
   vertex 0 0 0
   vertex 14.9052 -0 0.0141306
   vertex 14.8998 -0 0.0158279
  endloop
 endfacet
 facet normal -0 -1 0
  outer loop
   vertex 14.6895 -0 0.22899
   vertex 14.6879 -0 0.23441
   vertex 0 0 0
  endloop
 endfacet
 facet normal 0 -1 0
  outer loop
   vertex 0 0 0
   vertex 14.9106 -0 0.0125275
   vertex 14.9052 -0 0.0141306
  endloop
 endfacet
 facet normal -0 -1 0
  outer loop
   vertex 14.6879 -0 0.23441
   vertex 14.6864 -0 0.239857
   vertex 0 0 0
  endloop
 endfacet
 facet normal 0 -1 0
  outer loop
   vertex 0 0 0
   vertex 14.9161 -0 0.0110191
   vertex 14.9106 -0 0.0125275
  endloop
 endfacet
 facet normal -0 -1 0
  outer loop
   vertex 14.6864 -0 0.239857
   vertex 14.6849 -0 0.245331
   vertex 0 0 0
  endloop
 endfacet
 facet normal -0 -1 0
  outer loop
   vertex 14.6849 -0 0.245331
   vertex 14.6836 -0 0.250828
   vertex 0 0 0
  endloop
 endfacet
 facet normal -0 -1 0
  outer loop
   vertex 14.6836 -0 0.250828
   vertex 14.6823 -0 0.256348
   vertex 0 0 0
  endloop
 endfacet
 facet normal -0 -1 0
  outer loop
   vertex 14.6823 -0 0.256348
   vertex 14.6812 -0 0.261888
   vertex 0 0 0
  endloop
 endfacet
 facet normal -0 -1 0
  outer loop
   vertex 14.7072 -0 0.465991
   vertex 14.4519 -0 1.12428
   vertex 14.7048 -0 0.460872
  endloop
 endfacet
 facet normal -0 -1 0
  outer loop
   vertex 14.7048 -0 0.460872
   vertex 14.4519 -0 1.12428
   vertex 14.7024 -0 0.455712
  endloop
 endfacet
 facet normal -0 -1 0
  outer loop
   vertex 14.7024 -0 0.455712
   vertex 14.4519 -0 1.12428
   vertex 14.7002 -0 0.450512
  endloop
 endfacet
 facet normal -0 -1 0
  outer loop
   vertex 14.7002 -0 0.450512
   vertex 14.4519 -0 1.12428
   vertex 14.6981 -0 0.445274
  endloop
 endfacet
 facet normal -0 -1 0
  outer loop
   vertex 14.6981 -0 0.445274
   vertex 14.4519 -0 1.12428
   vertex 14.696 -0 0.439999
  endloop
 endfacet
 facet normal -0 -1 0
  outer loop
   vertex 14.696 -0 0.439999
   vertex 14.4519 -0 1.12428
   vertex 14.6941 -0 0.43469
  endloop
 endfacet
 facet normal -0 -1 0
  outer loop
   vertex 14.6941 -0 0.43469
   vertex 14.4519 -0 1.12428
   vertex 14.6922 -0 0.429348
  endloop
 endfacet
 facet normal -0 -1 0
  outer loop
   vertex 14.6922 -0 0.429348
   vertex 14.4519 -0 1.12428
   vertex 14.6904 -0 0.423973
  endloop
 endfacet
 facet normal -0 -1 0
  outer loop
   vertex 14.6904 -0 0.423973
   vertex 14.4519 -0 1.12428
   vertex 14.6888 -0 0.418569
  endloop
 endfacet
 facet normal -0 -1 0
  outer loop
   vertex 14.6888 -0 0.418569
   vertex 14.4519 -0 1.12428
   vertex 14.6872 -0 0.413137
  endloop
 endfacet
 facet normal -0 -1 0
  outer loop
   vertex 14.6872 -0 0.413137
   vertex 14.4519 -0 1.12428
   vertex 14.6857 -0 0.407678
  endloop
 endfacet
 facet normal -0 -1 0
  outer loop
   vertex 14.6857 -0 0.407678
   vertex 14.4519 -0 1.12428
   vertex 14.6843 -0 0.402193
  endloop
 endfacet
 facet normal -0 -1 0
  outer loop
   vertex 14.6843 -0 0.402193
   vertex 14.4519 -0 1.12428
   vertex 14.683 -0 0.396686
  endloop
 endfacet
 facet normal -0 -1 0
  outer loop
   vertex 14.683 -0 0.396686
   vertex 14.4519 -0 1.12428
   vertex 14.6818 -0 0.391156
  endloop
 endfacet
 facet normal -0 -1 0
  outer loop
   vertex 14.6818 -0 0.391156
   vertex 14.4519 -0 1.12428
   vertex 14.6807 -0 0.385607
  endloop
 endfacet
 facet normal -0 -1 0
  outer loop
   vertex 14.6807 -0 0.385607
   vertex 14.4519 -0 1.12428
   vertex 14.6797 -0 0.380039
  endloop
 endfacet
 facet normal -0 -1 0
  outer loop
   vertex 14.6797 -0 0.380039
   vertex 14.4519 -0 1.12428
   vertex 14.6788 -0 0.374455
  endloop
 endfacet
 facet normal 0 -1 0
  outer loop
   vertex 0 0 0
   vertex 14.4519 -0 1.12428
   vertex 0 -0 15
  endloop
 endfacet
 facet normal -0 -1 0
  outer loop
   vertex 14.6788 -0 0.374455
   vertex 14.4519 -0 1.12428
   vertex 14.678 -0 0.368855
  endloop
 endfacet
 facet normal -0 -1 0
  outer loop
   vertex 14.678 -0 0.368855
   vertex 14.4519 -0 1.12428
   vertex 14.6773 -0 0.363242
  endloop
 endfacet
 facet normal -0 -1 0
  outer loop
   vertex 14.6773 -0 0.363242
   vertex 14.4519 -0 1.12428
   vertex 14.6766 -0 0.357618
  endloop
 endfacet
 facet normal -0 -1 0
  outer loop
   vertex 14.6766 -0 0.357618
   vertex 14.4519 -0 1.12428
   vertex 14.6761 -0 0.351984
  endloop
 endfacet
 facet normal -0 -1 0
  outer loop
   vertex 14.6761 -0 0.351984
   vertex 14.4519 -0 1.12428
   vertex 14.6757 -0 0.346341
  endloop
 endfacet
 facet normal -0 -1 0
  outer loop
   vertex 14.6757 -0 0.346341
   vertex 14.4519 -0 1.12428
   vertex 14.6754 -0 0.340693
  endloop
 endfacet
 facet normal -0 -1 0
  outer loop
   vertex 14.6754 -0 0.340693
   vertex 14.4519 -0 1.12428
   vertex 14.6752 -0 0.335039
  endloop
 endfacet
 facet normal -0 -1 0
  outer loop
   vertex 14.6752 -0 0.335039
   vertex 14.4519 -0 1.12428
   vertex 14.675 -0 0.329382
  endloop
 endfacet
 facet normal -0 -1 0
  outer loop
   vertex 14.675 -0 0.329382
   vertex 14.4519 -0 1.12428
   vertex 14.675 -0 0.323724
  endloop
 endfacet
 facet normal -0 -1 -0
  outer loop
   vertex 14.675 -0 0.323724
   vertex 14.4519 -0 1.12428
   vertex 14.6751 -0 0.318067
  endloop
 endfacet
 facet normal -0 -1 -0
  outer loop
   vertex 14.6751 -0 0.318067
   vertex 14.4519 -0 1.12428
   vertex 14.6752 -0 0.312411
  endloop
 endfacet
 facet normal -0 -1 -0
  outer loop
   vertex 14.6752 -0 0.312411
   vertex 14.4519 -0 1.12428
   vertex 14.6755 -0 0.306759
  endloop
 endfacet
 facet normal -0 -1 -0
  outer loop
   vertex 14.6755 -0 0.306759
   vertex 14.4519 -0 1.12428
   vertex 14.6759 -0 0.301113
  endloop
 endfacet
 facet normal -0 -1 -0
  outer loop
   vertex 14.6759 -0 0.301113
   vertex 14.4519 -0 1.12428
   vertex 14.6763 -0 0.295474
  endloop
 endfacet
 facet normal -0 -1 -0
  outer loop
   vertex 14.6763 -0 0.295474
   vertex 14.4519 -0 1.12428
   vertex 14.6769 -0 0.289844
  endloop
 endfacet
 facet normal -0 -1 -0
  outer loop
   vertex 14.6769 -0 0.289844
   vertex 14.4519 -0 1.12428
   vertex 14.6776 -0 0.284225
  endloop
 endfacet
 facet normal -0 -1 -0
  outer loop
   vertex 14.6776 -0 0.284225
   vertex 14.4519 -0 1.12428
   vertex 14.6783 -0 0.278618
  endloop
 endfacet
 facet normal -0 -1 -0
  outer loop
   vertex 14.6783 -0 0.278618
   vertex 14.4519 -0 1.12428
   vertex 14.6792 -0 0.273025
  endloop
 endfacet
 facet normal -0 -1 -0
  outer loop
   vertex 14.6792 -0 0.273025
   vertex 14.4519 -0 1.12428
   vertex 14.6801 -0 0.267448
  endloop
 endfacet
 facet normal -0 -1 -0
  outer loop
   vertex 14.6801 -0 0.267448
   vertex 14.4519 -0 1.12428
   vertex 14.6812 -0 0.261888
  endloop
 endfacet
 facet normal -0 -1 0
  outer loop
   vertex 14.6812 -0 0.261888
   vertex 14.4519 -0 1.12428
   vertex 0 0 0
  endloop
 endfacet
 facet normal -0 -1 0
  outer loop
   vertex 14.7769 -0 0.561361
   vertex 14.4519 -0 1.12428
   vertex 14.7729 -0 0.557442
  endloop
 endfacet
 facet normal -0 -1 0
  outer loop
   vertex 14.7729 -0 0.557442
   vertex 14.4519 -0 1.12428
   vertex 14.7688 -0 0.553453
  endloop
 endfacet
 facet normal -0 -1 0
  outer loop
   vertex 14.7688 -0 0.553453
   vertex 14.4519 -0 1.12428
   vertex 14.7649 -0 0.549394
  endloop
 endfacet
 facet normal -0 -1 0
  outer loop
   vertex 14.7649 -0 0.549394
   vertex 14.4519 -0 1.12428
   vertex 14.761 -0 0.545267
  endloop
 endfacet
 facet normal -0 -1 0
  outer loop
   vertex 14.761 -0 0.545267
   vertex 14.4519 -0 1.12428
   vertex 14.7572 -0 0.541073
  endloop
 endfacet
 facet normal -0 -1 0
  outer loop
   vertex 14.7572 -0 0.541073
   vertex 14.4519 -0 1.12428
   vertex 14.7535 -0 0.536814
  endloop
 endfacet
 facet normal -0 -1 0
  outer loop
   vertex 14.7535 -0 0.536814
   vertex 14.4519 -0 1.12428
   vertex 14.7499 -0 0.532491
  endloop
 endfacet
 facet normal -0 -1 0
  outer loop
   vertex 14.7499 -0 0.532491
   vertex 14.4519 -0 1.12428
   vertex 14.7463 -0 0.528105
  endloop
 endfacet
 facet normal -0 -1 0
  outer loop
   vertex 14.7463 -0 0.528105
   vertex 14.4519 -0 1.12428
   vertex 14.7428 -0 0.523657
  endloop
 endfacet
 facet normal -0 -1 0
  outer loop
   vertex 14.7428 -0 0.523657
   vertex 14.4519 -0 1.12428
   vertex 14.7394 -0 0.519149
  endloop
 endfacet
 facet normal -0 -1 0
  outer loop
   vertex 14.7394 -0 0.519149
   vertex 14.4519 -0 1.12428
   vertex 14.736 -0 0.514582
  endloop
 endfacet
 facet normal -0 -1 0
  outer loop
   vertex 14.736 -0 0.514582
   vertex 14.4519 -0 1.12428
   vertex 14.7328 -0 0.509958
  endloop
 endfacet
 facet normal -0 -1 0
  outer loop
   vertex 14.7328 -0 0.509958
   vertex 14.4519 -0 1.12428
   vertex 14.7296 -0 0.505278
  endloop
 endfacet
 facet normal -0 -1 0
  outer loop
   vertex 14.7296 -0 0.505278
   vertex 14.4519 -0 1.12428
   vertex 14.7265 -0 0.500543
  endloop
 endfacet
 facet normal -0 -1 0
  outer loop
   vertex 14.7265 -0 0.500543
   vertex 14.4519 -0 1.12428
   vertex 14.7235 -0 0.495755
  endloop
 endfacet
 facet normal -0 -1 0
  outer loop
   vertex 14.7235 -0 0.495755
   vertex 14.4519 -0 1.12428
   vertex 14.7205 -0 0.490915
  endloop
 endfacet
 facet normal -0 -1 0
  outer loop
   vertex 14.7205 -0 0.490915
   vertex 14.4519 -0 1.12428
   vertex 14.7177 -0 0.486025
  endloop
 endfacet
 facet normal -0 -1 0
  outer loop
   vertex 14.7177 -0 0.486025
   vertex 14.4519 -0 1.12428
   vertex 14.7149 -0 0.481086
  endloop
 endfacet
 facet normal -0 -1 0
  outer loop
   vertex 14.7149 -0 0.481086
   vertex 14.4519 -0 1.12428
   vertex 14.7123 -0 0.476099
  endloop
 endfacet
 facet normal -0 -1 0
  outer loop
   vertex 14.7123 -0 0.476099
   vertex 14.4519 -0 1.12428
   vertex 14.7097 -0 0.471067
  endloop
 endfacet
 facet normal -0 -1 0
  outer loop
   vertex 14.7097 -0 0.471067
   vertex 14.4519 -0 1.12428
   vertex 14.7072 -0 0.465991
  endloop
 endfacet
 facet normal -0 -1 0
  outer loop
   vertex 15 -0 0.65
   vertex 14.5818 -0 1.19928
   vertex 14.9944 -0 0.649952
  endloop
 endfacet
 facet normal -0 -1 0
  outer loop
   vertex 14.9944 -0 0.649952
   vertex 14.5818 -0 1.19928
   vertex 14.9889 -0 0.64981
  endloop
 endfacet
 facet normal -0 -1 0
  outer loop
   vertex 14.9889 -0 0.64981
   vertex 14.5818 -0 1.19928
   vertex 14.9833 -0 0.649572
  endloop
 endfacet
 facet normal -0 -1 0
  outer loop
   vertex 14.9833 -0 0.649572
   vertex 14.5818 -0 1.19928
   vertex 14.9778 -0 0.64924
  endloop
 endfacet
 facet normal -0 -1 0
  outer loop
   vertex 14.9778 -0 0.64924
   vertex 14.5818 -0 1.19928
   vertex 14.9722 -0 0.648813
  endloop
 endfacet
 facet normal -0 -1 0
  outer loop
   vertex 14.9722 -0 0.648813
   vertex 14.5818 -0 1.19928
   vertex 14.9667 -0 0.648291
  endloop
 endfacet
 facet normal -0 -1 0
  outer loop
   vertex 14.9667 -0 0.648291
   vertex 14.5818 -0 1.19928
   vertex 14.9612 -0 0.647674
  endloop
 endfacet
 facet normal -0 -1 0
  outer loop
   vertex 14.9612 -0 0.647674
   vertex 14.5818 -0 1.19928
   vertex 14.9557 -0 0.646963
  endloop
 endfacet
 facet normal -0 -1 0
  outer loop
   vertex 14.9557 -0 0.646963
   vertex 14.5818 -0 1.19928
   vertex 14.9502 -0 0.646158
  endloop
 endfacet
 facet normal -0 -1 0
  outer loop
   vertex 14.9502 -0 0.646158
   vertex 14.5818 -0 1.19928
   vertex 14.9447 -0 0.645259
  endloop
 endfacet
 facet normal -0 -1 0
  outer loop
   vertex 14.9447 -0 0.645259
   vertex 14.5818 -0 1.19928
   vertex 14.9392 -0 0.644266
  endloop
 endfacet
 facet normal -0 -1 0
  outer loop
   vertex 14.9392 -0 0.644266
   vertex 14.5818 -0 1.19928
   vertex 14.9338 -0 0.64318
  endloop
 endfacet
 facet normal -0 -1 0
  outer loop
   vertex 14.9338 -0 0.64318
   vertex 14.5818 -0 1.19928
   vertex 14.9283 -0 0.642001
  endloop
 endfacet
 facet normal -0 -1 0
  outer loop
   vertex 14.9283 -0 0.642001
   vertex 14.5818 -0 1.19928
   vertex 14.9229 -0 0.640729
  endloop
 endfacet
 facet normal -0 -1 0
  outer loop
   vertex 14.9229 -0 0.640729
   vertex 14.5818 -0 1.19928
   vertex 14.9175 -0 0.639365
  endloop
 endfacet
 facet normal -0 -1 0
  outer loop
   vertex 14.9175 -0 0.639365
   vertex 14.5818 -0 1.19928
   vertex 14.9122 -0 0.637909
  endloop
 endfacet
 facet normal -0 -1 0
  outer loop
   vertex 14.9122 -0 0.637909
   vertex 14.5818 -0 1.19928
   vertex 14.9068 -0 0.636361
  endloop
 endfacet
 facet normal 0 -1 0
  outer loop
   vertex 14.4519 -0 1.12428
   vertex 14.5818 -0 1.19928
   vertex 0 -0 15
  endloop
 endfacet
 facet normal 0 -1 0
  outer loop
   vertex 15 -0 0.65
   vertex 15.4182 -0 1.19928
   vertex 14.5818 -0 1.19928
  endloop
 endfacet
 facet normal 0 -1 0
  outer loop
   vertex 15.0932 -0 0.636361
   vertex 15.4182 -0 1.19928
   vertex 15.0878 -0 0.637909
  endloop
 endfacet
 facet normal 0 -1 0
  outer loop
   vertex 15.0878 -0 0.637909
   vertex 15.4182 -0 1.19928
   vertex 15.0825 -0 0.639365
  endloop
 endfacet
 facet normal 0 -1 0
  outer loop
   vertex 15.0825 -0 0.639365
   vertex 15.4182 -0 1.19928
   vertex 15.0771 -0 0.640729
  endloop
 endfacet
 facet normal 0 -1 0
  outer loop
   vertex 15.0771 -0 0.640729
   vertex 15.4182 -0 1.19928
   vertex 15.0717 -0 0.642001
  endloop
 endfacet
 facet normal 0 -1 0
  outer loop
   vertex 15.0717 -0 0.642001
   vertex 15.4182 -0 1.19928
   vertex 15.0662 -0 0.64318
  endloop
 endfacet
 facet normal 0 -1 0
  outer loop
   vertex 15.0662 -0 0.64318
   vertex 15.4182 -0 1.19928
   vertex 15.0608 -0 0.644266
  endloop
 endfacet
 facet normal 0 -1 0
  outer loop
   vertex 15.0608 -0 0.644266
   vertex 15.4182 -0 1.19928
   vertex 15.0553 -0 0.645259
  endloop
 endfacet
 facet normal 0 -1 0
  outer loop
   vertex 15.0553 -0 0.645259
   vertex 15.4182 -0 1.19928
   vertex 15.0498 -0 0.646158
  endloop
 endfacet
 facet normal 0 -1 0
  outer loop
   vertex 15.0498 -0 0.646158
   vertex 15.4182 -0 1.19928
   vertex 15.0443 -0 0.646963
  endloop
 endfacet
 facet normal 0 -1 0
  outer loop
   vertex 15.0443 -0 0.646963
   vertex 15.4182 -0 1.19928
   vertex 15.0388 -0 0.647674
  endloop
 endfacet
 facet normal 0 -1 0
  outer loop
   vertex 15.0388 -0 0.647674
   vertex 15.4182 -0 1.19928
   vertex 15.0333 -0 0.648291
  endloop
 endfacet
 facet normal 0 -1 0
  outer loop
   vertex 15.0333 -0 0.648291
   vertex 15.4182 -0 1.19928
   vertex 15.0278 -0 0.648813
  endloop
 endfacet
 facet normal 0 -1 0
  outer loop
   vertex 15.0278 -0 0.648813
   vertex 15.4182 -0 1.19928
   vertex 15.0222 -0 0.64924
  endloop
 endfacet
 facet normal 0 -1 0
  outer loop
   vertex 15.0222 -0 0.64924
   vertex 15.4182 -0 1.19928
   vertex 15.0167 -0 0.649572
  endloop
 endfacet
 facet normal 0 -1 0
  outer loop
   vertex 15.0167 -0 0.649572
   vertex 15.4182 -0 1.19928
   vertex 15.0111 -0 0.64981
  endloop
 endfacet
 facet normal 0 -1 0
  outer loop
   vertex 15.0111 -0 0.64981
   vertex 15.4182 -0 1.19928
   vertex 15.0056 -0 0.649952
  endloop
 endfacet
 facet normal 0 -1 0
  outer loop
   vertex 15.0056 -0 0.649952
   vertex 15.4182 -0 1.19928
   vertex 15 -0 0.65
  endloop
 endfacet
 facet normal 0 -1 0
  outer loop
   vertex 15.3227 -0 0.363242
   vertex 15.5481 -0 1.12428
   vertex 15.322 -0 0.368855
  endloop
 endfacet
 facet normal 0 -1 0
  outer loop
   vertex 15.322 -0 0.368855
   vertex 15.5481 -0 1.12428
   vertex 15.3212 -0 0.374455
  endloop
 endfacet
 facet normal 0 -1 0
  outer loop
   vertex 15.3212 -0 0.374455
   vertex 15.5481 -0 1.12428
   vertex 15.3203 -0 0.380039
  endloop
 endfacet
 facet normal 0 -1 0
  outer loop
   vertex 15.3203 -0 0.380039
   vertex 15.5481 -0 1.12428
   vertex 15.3193 -0 0.385607
  endloop
 endfacet
 facet normal 0 -1 0
  outer loop
   vertex 15.3193 -0 0.385607
   vertex 15.5481 -0 1.12428
   vertex 15.3182 -0 0.391156
  endloop
 endfacet
 facet normal 0 -1 0
  outer loop
   vertex 15.3182 -0 0.391156
   vertex 15.5481 -0 1.12428
   vertex 15.317 -0 0.396686
  endloop
 endfacet
 facet normal 0 -1 0
  outer loop
   vertex 15.317 -0 0.396686
   vertex 15.5481 -0 1.12428
   vertex 15.3157 -0 0.402193
  endloop
 endfacet
 facet normal 0 -1 0
  outer loop
   vertex 15.3157 -0 0.402193
   vertex 15.5481 -0 1.12428
   vertex 15.3143 -0 0.407678
  endloop
 endfacet
 facet normal 0 -1 0
  outer loop
   vertex 15.3143 -0 0.407678
   vertex 15.5481 -0 1.12428
   vertex 15.3128 -0 0.413137
  endloop
 endfacet
 facet normal 0 -1 0
  outer loop
   vertex 15.3128 -0 0.413137
   vertex 15.5481 -0 1.12428
   vertex 15.3112 -0 0.418569
  endloop
 endfacet
 facet normal 0 -1 0
  outer loop
   vertex 15.3112 -0 0.418569
   vertex 15.5481 -0 1.12428
   vertex 15.3096 -0 0.423973
  endloop
 endfacet
 facet normal 0 -1 0
  outer loop
   vertex 15.3096 -0 0.423973
   vertex 15.5481 -0 1.12428
   vertex 15.3078 -0 0.429348
  endloop
 endfacet
 facet normal 0 -1 0
  outer loop
   vertex 15.3078 -0 0.429348
   vertex 15.5481 -0 1.12428
   vertex 15.3059 -0 0.43469
  endloop
 endfacet
 facet normal 0 -1 0
  outer loop
   vertex 15.3059 -0 0.43469
   vertex 15.5481 -0 1.12428
   vertex 15.304 -0 0.439999
  endloop
 endfacet
 facet normal 0 -1 0
  outer loop
   vertex 15.304 -0 0.439999
   vertex 15.5481 -0 1.12428
   vertex 15.3019 -0 0.445274
  endloop
 endfacet
 facet normal 0 -1 0
  outer loop
   vertex 15.3019 -0 0.445274
   vertex 15.5481 -0 1.12428
   vertex 15.2998 -0 0.450512
  endloop
 endfacet
 facet normal 0 -1 0
  outer loop
   vertex 15.2998 -0 0.450512
   vertex 15.5481 -0 1.12428
   vertex 15.2976 -0 0.455712
  endloop
 endfacet
 facet normal 0 -1 0
  outer loop
   vertex 15.2976 -0 0.455712
   vertex 15.5481 -0 1.12428
   vertex 15.2952 -0 0.460872
  endloop
 endfacet
 facet normal 0 -1 0
  outer loop
   vertex 15.2952 -0 0.460872
   vertex 15.5481 -0 1.12428
   vertex 15.2928 -0 0.465991
  endloop
 endfacet
 facet normal 0 -1 0
  outer loop
   vertex 15.2928 -0 0.465991
   vertex 15.5481 -0 1.12428
   vertex 15.2903 -0 0.471067
  endloop
 endfacet
 facet normal 0 -1 0
  outer loop
   vertex 15.2903 -0 0.471067
   vertex 15.5481 -0 1.12428
   vertex 15.2877 -0 0.476099
  endloop
 endfacet
 facet normal 0 -1 0
  outer loop
   vertex 15.2877 -0 0.476099
   vertex 15.5481 -0 1.12428
   vertex 15.2851 -0 0.481086
  endloop
 endfacet
 facet normal 0 -1 0
  outer loop
   vertex 15.2851 -0 0.481086
   vertex 15.5481 -0 1.12428
   vertex 15.2823 -0 0.486025
  endloop
 endfacet
 facet normal 0 -1 0
  outer loop
   vertex 15.2823 -0 0.486025
   vertex 15.5481 -0 1.12428
   vertex 15.2795 -0 0.490915
  endloop
 endfacet
 facet normal 0 -1 0
  outer loop
   vertex 15.2795 -0 0.490915
   vertex 15.5481 -0 1.12428
   vertex 15.2765 -0 0.495755
  endloop
 endfacet
 facet normal 0 -1 0
  outer loop
   vertex 15.2765 -0 0.495755
   vertex 15.5481 -0 1.12428
   vertex 15.2735 -0 0.500543
  endloop
 endfacet
 facet normal 0 -1 0
  outer loop
   vertex 15.2735 -0 0.500543
   vertex 15.5481 -0 1.12428
   vertex 15.2704 -0 0.505278
  endloop
 endfacet
 facet normal 0 -1 0
  outer loop
   vertex 15.2704 -0 0.505278
   vertex 15.5481 -0 1.12428
   vertex 15.2672 -0 0.509958
  endloop
 endfacet
 facet normal 0 -1 0
  outer loop
   vertex 15.2672 -0 0.509958
   vertex 15.5481 -0 1.12428
   vertex 15.264 -0 0.514582
  endloop
 endfacet
 facet normal 0 -1 0
  outer loop
   vertex 15.264 -0 0.514582
   vertex 15.5481 -0 1.12428
   vertex 15.2606 -0 0.519149
  endloop
 endfacet
 facet normal 0 -1 0
  outer loop
   vertex 15.2606 -0 0.519149
   vertex 15.5481 -0 1.12428
   vertex 15.2572 -0 0.523657
  endloop
 endfacet
 facet normal 0 -1 0
  outer loop
   vertex 15.2572 -0 0.523657
   vertex 15.5481 -0 1.12428
   vertex 15.2537 -0 0.528105
  endloop
 endfacet
 facet normal 0 -1 0
  outer loop
   vertex 15.2537 -0 0.528105
   vertex 15.5481 -0 1.12428
   vertex 15.2501 -0 0.532491
  endloop
 endfacet
 facet normal 0 -1 0
  outer loop
   vertex 15.2501 -0 0.532491
   vertex 15.5481 -0 1.12428
   vertex 15.2465 -0 0.536814
  endloop
 endfacet
 facet normal 0 -1 0
  outer loop
   vertex 15.2465 -0 0.536814
   vertex 15.5481 -0 1.12428
   vertex 15.2428 -0 0.541073
  endloop
 endfacet
 facet normal 0 -1 0
  outer loop
   vertex 15.2428 -0 0.541073
   vertex 15.5481 -0 1.12428
   vertex 15.239 -0 0.545267
  endloop
 endfacet
 facet normal 0 -1 0
  outer loop
   vertex 15.239 -0 0.545267
   vertex 15.5481 -0 1.12428
   vertex 15.2351 -0 0.549394
  endloop
 endfacet
 facet normal 0 -1 0
  outer loop
   vertex 15.2351 -0 0.549394
   vertex 15.5481 -0 1.12428
   vertex 15.2312 -0 0.553453
  endloop
 endfacet
 facet normal 0 -1 0
  outer loop
   vertex 15.2312 -0 0.553453
   vertex 15.5481 -0 1.12428
   vertex 15.2271 -0 0.557442
  endloop
 endfacet
 facet normal 0 -1 0
  outer loop
   vertex 15.2271 -0 0.557442
   vertex 15.5481 -0 1.12428
   vertex 15.2231 -0 0.561361
  endloop
 endfacet
 facet normal 0 -1 0
  outer loop
   vertex 15.3188 -0 0.261888
   vertex 15.5481 -0 1.12428
   vertex 15.3199 -0 0.267448
  endloop
 endfacet
 facet normal 0 -1 0
  outer loop
   vertex 15.3199 -0 0.267448
   vertex 15.5481 -0 1.12428
   vertex 15.3208 -0 0.273025
  endloop
 endfacet
 facet normal 0 -1 0
  outer loop
   vertex 15.3208 -0 0.273025
   vertex 15.5481 -0 1.12428
   vertex 15.3217 -0 0.278618
  endloop
 endfacet
 facet normal 0 -1 0
  outer loop
   vertex 15.3217 -0 0.278618
   vertex 15.5481 -0 1.12428
   vertex 15.3224 -0 0.284225
  endloop
 endfacet
 facet normal 0 -1 0
  outer loop
   vertex 15.3224 -0 0.284225
   vertex 15.5481 -0 1.12428
   vertex 15.3231 -0 0.289844
  endloop
 endfacet
 facet normal 0 -1 0
  outer loop
   vertex 15.3231 -0 0.289844
   vertex 15.5481 -0 1.12428
   vertex 15.3237 -0 0.295474
  endloop
 endfacet
 facet normal 0 -1 0
  outer loop
   vertex 15.3237 -0 0.295474
   vertex 15.5481 -0 1.12428
   vertex 15.3241 -0 0.301113
  endloop
 endfacet
 facet normal 0 -1 0
  outer loop
   vertex 15.3241 -0 0.301113
   vertex 15.5481 -0 1.12428
   vertex 15.3245 -0 0.306759
  endloop
 endfacet
 facet normal 0 -1 0
  outer loop
   vertex 15.3245 -0 0.306759
   vertex 15.5481 -0 1.12428
   vertex 15.3248 -0 0.312411
  endloop
 endfacet
 facet normal 0 -1 0
  outer loop
   vertex 15.3248 -0 0.312411
   vertex 15.5481 -0 1.12428
   vertex 15.3249 -0 0.318067
  endloop
 endfacet
 facet normal 0 -1 0
  outer loop
   vertex 15.3249 -0 0.318067
   vertex 15.5481 -0 1.12428
   vertex 15.325 -0 0.323724
  endloop
 endfacet
 facet normal 0 -1 0
  outer loop
   vertex 15.325 -0 0.323724
   vertex 15.5481 -0 1.12428
   vertex 15.325 -0 0.329382
  endloop
 endfacet
 facet normal 0 -1 0
  outer loop
   vertex 15.325 -0 0.329382
   vertex 15.5481 -0 1.12428
   vertex 15.3248 -0 0.335039
  endloop
 endfacet
 facet normal 0 -1 0
  outer loop
   vertex 15.3248 -0 0.335039
   vertex 15.5481 -0 1.12428
   vertex 15.3246 -0 0.340693
  endloop
 endfacet
 facet normal 0 -1 0
  outer loop
   vertex 15.3246 -0 0.340693
   vertex 15.5481 -0 1.12428
   vertex 15.3243 -0 0.346341
  endloop
 endfacet
 facet normal 0 -1 0
  outer loop
   vertex 15.3243 -0 0.346341
   vertex 15.5481 -0 1.12428
   vertex 15.3239 -0 0.351984
  endloop
 endfacet
 facet normal 0 -1 0
  outer loop
   vertex 15.3239 -0 0.351984
   vertex 15.5481 -0 1.12428
   vertex 15.3234 -0 0.357618
  endloop
 endfacet
 facet normal 0 -1 0
  outer loop
   vertex 15.3234 -0 0.357618
   vertex 15.5481 -0 1.12428
   vertex 15.3227 -0 0.363242
  endloop
 endfacet
 facet normal 0 -1 0
  outer loop
   vertex 15.3188 -0 0.261888
   vertex 30 0 0
   vertex 15.5481 -0 1.12428
  endloop
 endfacet
 facet normal 0 -1 0
  outer loop
   vertex 15.0619 -0 0.00594145
   vertex 30 0 0
   vertex 15.0674 -0 0.00706671
  endloop
 endfacet
 facet normal 0 -1 0
  outer loop
   vertex 15.0674 -0 0.00706671
   vertex 30 0 0
   vertex 15.0729 -0 0.00828833
  endloop
 endfacet
 facet normal 0 -1 0
  outer loop
   vertex 15.0729 -0 0.00828833
   vertex 30 0 0
   vertex 15.0784 -0 0.00960594
  endloop
 endfacet
 facet normal 0 -1 0
  outer loop
   vertex 15.0784 -0 0.00960594
   vertex 30 0 0
   vertex 15.0839 -0 0.0110191
  endloop
 endfacet
 facet normal 0 -1 0
  outer loop
   vertex 15.0839 -0 0.0110191
   vertex 30 0 0
   vertex 15.0894 -0 0.0125275
  endloop
 endfacet
 facet normal 0 -1 0
  outer loop
   vertex 15.0894 -0 0.0125275
   vertex 30 0 0
   vertex 15.0948 -0 0.0141306
  endloop
 endfacet
 facet normal 0 -1 0
  outer loop
   vertex 15.0948 -0 0.0141306
   vertex 30 0 0
   vertex 15.1002 -0 0.0158279
  endloop
 endfacet
 facet normal 0 -1 0
  outer loop
   vertex 15.1002 -0 0.0158279
   vertex 30 0 0
   vertex 15.1056 -0 0.0176189
  endloop
 endfacet
 facet normal 0 -1 0
  outer loop
   vertex 15.1056 -0 0.0176189
   vertex 30 0 0
   vertex 15.1109 -0 0.019503
  endloop
 endfacet
 facet normal 0 -1 0
  outer loop
   vertex 15.1109 -0 0.019503
   vertex 30 0 0
   vertex 15.1162 -0 0.0214798
  endloop
 endfacet
 facet normal 0 -1 0
  outer loop
   vertex 15.1162 -0 0.0214798
   vertex 30 0 0
   vertex 15.1215 -0 0.0235486
  endloop
 endfacet
 facet normal 0 -1 0
  outer loop
   vertex 15.1215 -0 0.0235486
   vertex 30 0 0
   vertex 15.1267 -0 0.0257087
  endloop
 endfacet
 facet normal 0 -1 0
  outer loop
   vertex 15.1267 -0 0.0257087
   vertex 30 0 0
   vertex 15.1319 -0 0.0279595
  endloop
 endfacet
 facet normal 0 -1 0
  outer loop
   vertex 15.1319 -0 0.0279595
   vertex 30 0 0
   vertex 15.137 -0 0.0303004
  endloop
 endfacet
 facet normal 0 -1 0
  outer loop
   vertex 15.137 -0 0.0303004
   vertex 30 0 0
   vertex 15.1421 -0 0.0327306
  endloop
 endfacet
 facet normal 0 -1 0
  outer loop
   vertex 15.1421 -0 0.0327306
   vertex 30 0 0
   vertex 15.1472 -0 0.0352493
  endloop
 endfacet
 facet normal 0 -1 0
  outer loop
   vertex 15.1472 -0 0.0352493
   vertex 30 0 0
   vertex 15.1522 -0 0.0378559
  endloop
 endfacet
 facet normal 0 -1 0
  outer loop
   vertex 15.1522 -0 0.0378559
   vertex 30 0 0
   vertex 15.1572 -0 0.0405495
  endloop
 endfacet
 facet normal 0 -1 0
  outer loop
   vertex 15.1572 -0 0.0405495
   vertex 30 0 0
   vertex 15.1621 -0 0.0433294
  endloop
 endfacet
 facet normal 0 -1 0
  outer loop
   vertex 15.1621 -0 0.0433294
   vertex 30 0 0
   vertex 15.167 -0 0.0461946
  endloop
 endfacet
 facet normal 0 -1 0
  outer loop
   vertex 15.167 -0 0.0461946
   vertex 30 0 0
   vertex 15.1718 -0 0.0491443
  endloop
 endfacet
 facet normal 0 -1 0
  outer loop
   vertex 15.1718 -0 0.0491443
   vertex 30 0 0
   vertex 15.1766 -0 0.0521776
  endloop
 endfacet
 facet normal 0 -1 0
  outer loop
   vertex 15.1766 -0 0.0521776
   vertex 30 0 0
   vertex 15.1813 -0 0.0552936
  endloop
 endfacet
 facet normal 0 -1 0
  outer loop
   vertex 15.1813 -0 0.0552936
   vertex 30 0 0
   vertex 15.186 -0 0.0584913
  endloop
 endfacet
 facet normal 0 -1 0
  outer loop
   vertex 15.186 -0 0.0584913
   vertex 30 0 0
   vertex 15.1906 -0 0.0617699
  endloop
 endfacet
 facet normal 0 -1 0
  outer loop
   vertex 15.1906 -0 0.0617699
   vertex 30 0 0
   vertex 15.1952 -0 0.0651282
  endloop
 endfacet
 facet normal 0 -1 0
  outer loop
   vertex 15.1952 -0 0.0651282
   vertex 30 0 0
   vertex 15.1997 -0 0.0685652
  endloop
 endfacet
 facet normal 0 -1 0
  outer loop
   vertex 15.1997 -0 0.0685652
   vertex 30 0 0
   vertex 15.2041 -0 0.07208
  endloop
 endfacet
 facet normal 0 -1 0
  outer loop
   vertex 15.2041 -0 0.07208
   vertex 30 0 0
   vertex 15.2085 -0 0.0756715
  endloop
 endfacet
 facet normal 0 -1 0
  outer loop
   vertex 15.2085 -0 0.0756715
   vertex 30 0 0
   vertex 15.2128 -0 0.0793385
  endloop
 endfacet
 facet normal 0 -1 0
  outer loop
   vertex 15.2128 -0 0.0793385
   vertex 30 0 0
   vertex 15.217 -0 0.08308
  endloop
 endfacet
 facet normal 0 -1 0
  outer loop
   vertex 15.217 -0 0.08308
   vertex 30 0 0
   vertex 15.2212 -0 0.0868948
  endloop
 endfacet
 facet normal 0 -1 0
  outer loop
   vertex 15.2212 -0 0.0868948
   vertex 30 0 0
   vertex 15.2253 -0 0.0907817
  endloop
 endfacet
 facet normal 0 -1 0
  outer loop
   vertex 15.2253 -0 0.0907817
   vertex 30 0 0
   vertex 15.2294 -0 0.0947397
  endloop
 endfacet
 facet normal 0 -1 0
  outer loop
   vertex 15.2294 -0 0.0947397
   vertex 30 0 0
   vertex 15.2333 -0 0.0987674
  endloop
 endfacet
 facet normal 0 -1 0
  outer loop
   vertex 15.2333 -0 0.0987674
   vertex 30 0 0
   vertex 15.2372 -0 0.102864
  endloop
 endfacet
 facet normal 0 -1 0
  outer loop
   vertex 15.2372 -0 0.102864
   vertex 30 0 0
   vertex 15.2411 -0 0.107027
  endloop
 endfacet
 facet normal 0 -1 0
  outer loop
   vertex 15.2411 -0 0.107027
   vertex 30 0 0
   vertex 15.2448 -0 0.111257
  endloop
 endfacet
 facet normal 0 -1 0
  outer loop
   vertex 15.2448 -0 0.111257
   vertex 30 0 0
   vertex 15.2485 -0 0.115552
  endloop
 endfacet
 facet normal 0 -1 0
  outer loop
   vertex 15.2485 -0 0.115552
   vertex 30 0 0
   vertex 15.2521 -0 0.11991
  endloop
 endfacet
 facet normal 0 -1 0
  outer loop
   vertex 15.2521 -0 0.11991
   vertex 30 0 0
   vertex 15.2556 -0 0.12433
  endloop
 endfacet
 facet normal 0 -1 0
  outer loop
   vertex 15.2556 -0 0.12433
   vertex 30 0 0
   vertex 15.2591 -0 0.128811
  endloop
 endfacet
 facet normal 0 -1 0
  outer loop
   vertex 15.2591 -0 0.128811
   vertex 30 0 0
   vertex 15.2625 -0 0.133351
  endloop
 endfacet
 facet normal 0 -1 0
  outer loop
   vertex 15.2625 -0 0.133351
   vertex 30 0 0
   vertex 15.2658 -0 0.13795
  endloop
 endfacet
 facet normal 0 -1 0
  outer loop
   vertex 15.2658 -0 0.13795
   vertex 30 0 0
   vertex 15.269 -0 0.142605
  endloop
 endfacet
 facet normal 0 -1 0
  outer loop
   vertex 15.269 -0 0.142605
   vertex 30 0 0
   vertex 15.2721 -0 0.147315
  endloop
 endfacet
 facet normal 0 -1 0
  outer loop
   vertex 15.2721 -0 0.147315
   vertex 30 0 0
   vertex 15.2752 -0 0.15208
  endloop
 endfacet
 facet normal 0 -1 0
  outer loop
   vertex 15.2752 -0 0.15208
   vertex 30 0 0
   vertex 15.2781 -0 0.156896
  endloop
 endfacet
 facet normal 0 -1 0
  outer loop
   vertex 15.2781 -0 0.156896
   vertex 30 0 0
   vertex 15.281 -0 0.161764
  endloop
 endfacet
 facet normal 0 -1 0
  outer loop
   vertex 15.281 -0 0.161764
   vertex 30 0 0
   vertex 15.2838 -0 0.166681
  endloop
 endfacet
 facet normal 0 -1 0
  outer loop
   vertex 15.2838 -0 0.166681
   vertex 30 0 0
   vertex 15.2865 -0 0.171646
  endloop
 endfacet
 facet normal 0 -1 0
  outer loop
   vertex 15.2865 -0 0.171646
   vertex 30 0 0
   vertex 15.2892 -0 0.176658
  endloop
 endfacet
 facet normal 0 -1 0
  outer loop
   vertex 15.2892 -0 0.176658
   vertex 30 0 0
   vertex 15.2917 -0 0.181715
  endloop
 endfacet
 facet normal 0 -1 0
  outer loop
   vertex 15.2917 -0 0.181715
   vertex 30 0 0
   vertex 15.2942 -0 0.186815
  endloop
 endfacet
 facet normal 0 -1 0
  outer loop
   vertex 15.2942 -0 0.186815
   vertex 30 0 0
   vertex 15.2965 -0 0.191956
  endloop
 endfacet
 facet normal 0 -1 0
  outer loop
   vertex 15.2965 -0 0.191956
   vertex 30 0 0
   vertex 15.2988 -0 0.197139
  endloop
 endfacet
 facet normal 0 -1 0
  outer loop
   vertex 15.2988 -0 0.197139
   vertex 30 0 0
   vertex 15.301 -0 0.20236
  endloop
 endfacet
 facet normal 0 -1 0
  outer loop
   vertex 15.301 -0 0.20236
   vertex 30 0 0
   vertex 15.3031 -0 0.207618
  endloop
 endfacet
 facet normal 0 -1 0
  outer loop
   vertex 15.3031 -0 0.207618
   vertex 30 0 0
   vertex 15.3051 -0 0.212912
  endloop
 endfacet
 facet normal 0 -1 0
  outer loop
   vertex 15.3051 -0 0.212912
   vertex 30 0 0
   vertex 15.307 -0 0.218239
  endloop
 endfacet
 facet normal 0 -1 0
  outer loop
   vertex 15.307 -0 0.218239
   vertex 30 0 0
   vertex 15.3088 -0 0.223599
  endloop
 endfacet
 facet normal 0 -1 0
  outer loop
   vertex 15.3088 -0 0.223599
   vertex 30 0 0
   vertex 15.3105 -0 0.22899
  endloop
 endfacet
 facet normal 0 -1 0
  outer loop
   vertex 15.3105 -0 0.22899
   vertex 30 0 0
   vertex 15.3121 -0 0.23441
  endloop
 endfacet
 facet normal 0 -1 0
  outer loop
   vertex 15.3121 -0 0.23441
   vertex 30 0 0
   vertex 15.3136 -0 0.239857
  endloop
 endfacet
 facet normal 0 -1 0
  outer loop
   vertex 15.3136 -0 0.239857
   vertex 30 0 0
   vertex 15.3151 -0 0.245331
  endloop
 endfacet
 facet normal 0 -1 0
  outer loop
   vertex 15.3151 -0 0.245331
   vertex 30 0 0
   vertex 15.3164 -0 0.250828
  endloop
 endfacet
 facet normal 0 -1 0
  outer loop
   vertex 15.3164 -0 0.250828
   vertex 30 0 0
   vertex 15.3177 -0 0.256348
  endloop
 endfacet
 facet normal 0 -1 0
  outer loop
   vertex 15.3177 -0 0.256348
   vertex 30 0 0
   vertex 15.3188 -0 0.261888
  endloop
 endfacet
 facet normal 0 -1 0
  outer loop
   vertex 15.4182 -0 1.19928
   vertex 30 -0 15
   vertex 14.5818 -0 1.19928
  endloop
 endfacet
 facet normal 0 -1 -0
  outer loop
   vertex 30 0 0
   vertex 30 -0 15
   vertex 15.5481 -0 1.12428
  endloop
 endfacet
 facet normal 0 -1 0
  outer loop
   vertex 15.5481 -0 1.12428
   vertex 30 -0 15
   vertex 15.4182 -0 1.19928
  endloop
 endfacet
 facet normal 0 -1 0
  outer loop
   vertex 14.5818 -0 1.19928
   vertex 30 -0 15
   vertex 0 -0 15
  endloop
 endfacet
 facet normal 0 -1 -0
  outer loop
   vertex 15 0 0
   vertex 30 0 0
   vertex 15.0057 -0 4.9252e-05
  endloop
 endfacet
 facet normal 0 -1 0
  outer loop
   vertex 15.0057 -0 4.9252e-05
   vertex 30 0 0
   vertex 15.0113 -0 0.000196993
  endloop
 endfacet
 facet normal 0 -1 0
  outer loop
   vertex 15.0113 -0 0.000196993
   vertex 30 0 0
   vertex 15.017 -0 0.000443178
  endloop
 endfacet
 facet normal 0 -1 0
  outer loop
   vertex 15.017 -0 0.000443178
   vertex 30 0 0
   vertex 15.0226 -0 0.000787733
  endloop
 endfacet
 facet normal 0 -1 0
  outer loop
   vertex 15.0226 -0 0.000787733
   vertex 30 0 0
   vertex 15.0283 -0 0.00123055
  endloop
 endfacet
 facet normal 0 -1 0
  outer loop
   vertex 15.0283 -0 0.00123055
   vertex 30 0 0
   vertex 15.0339 -0 0.0017715
  endloop
 endfacet
 facet normal 0 -1 0
  outer loop
   vertex 15.0339 -0 0.0017715
   vertex 30 0 0
   vertex 15.0395 -0 0.00241042
  endloop
 endfacet
 facet normal 0 -1 0
  outer loop
   vertex 15.0395 -0 0.00241042
   vertex 30 0 0
   vertex 15.0451 -0 0.00314711
  endloop
 endfacet
 facet normal 0 -1 0
  outer loop
   vertex 15.0451 -0 0.00314711
   vertex 30 0 0
   vertex 15.0507 -0 0.00398136
  endloop
 endfacet
 facet normal 0 -1 0
  outer loop
   vertex 15.0507 -0 0.00398136
   vertex 30 0 0
   vertex 15.0563 -0 0.0049129
  endloop
 endfacet
 facet normal 0 -1 0
  outer loop
   vertex 15.0563 -0 0.0049129
   vertex 30 0 0
   vertex 15.0619 -0 0.00594145
  endloop
 endfacet
 facet normal 0 -1 -0
  outer loop
   vertex 0 0 0
   vertex 15 0 0
   vertex 14.9943 -0 4.9252e-05
  endloop
 endfacet
 facet normal 0 -1 0
  outer loop
   vertex 0 0 0
   vertex 14.9943 -0 4.9252e-05
   vertex 14.9887 -0 0.000196993
  endloop
 endfacet
 facet normal 0 -1 0
  outer loop
   vertex 0 0 0
   vertex 14.9887 -0 0.000196993
   vertex 14.983 -0 0.000443178
  endloop
 endfacet
 facet normal 0 -1 0
  outer loop
   vertex 0 0 0
   vertex 14.983 -0 0.000443178
   vertex 14.9774 -0 0.000787733
  endloop
 endfacet
 facet normal 0 -1 0
  outer loop
   vertex 0 0 0
   vertex 14.9774 -0 0.000787733
   vertex 14.9717 -0 0.00123055
  endloop
 endfacet
 facet normal 0 -1 0
  outer loop
   vertex 0 0 0
   vertex 14.9717 -0 0.00123055
   vertex 14.9661 -0 0.0017715
  endloop
 endfacet
 facet normal 0 -1 0
  outer loop
   vertex 0 0 0
   vertex 14.9661 -0 0.0017715
   vertex 14.9605 -0 0.00241042
  endloop
 endfacet
 facet normal 0 -1 0
  outer loop
   vertex 0 0 0
   vertex 14.9605 -0 0.00241042
   vertex 14.9549 -0 0.00314711
  endloop
 endfacet
 facet normal 0 -1 0
  outer loop
   vertex 0 0 0
   vertex 14.9549 -0 0.00314711
   vertex 14.9493 -0 0.00398136
  endloop
 endfacet
 facet normal 0 -1 0
  outer loop
   vertex 0 0 0
   vertex 14.9493 -0 0.00398136
   vertex 14.9437 -0 0.0049129
  endloop
 endfacet
 facet normal 0 -1 0
  outer loop
   vertex 0 0 0
   vertex 14.9437 -0 0.0049129
   vertex 14.9381 -0 0.00594145
  endloop
 endfacet
 facet normal 0 -1 0
  outer loop
   vertex 0 0 0
   vertex 14.9381 -0 0.00594145
   vertex 14.9326 -0 0.00706671
  endloop
 endfacet
 facet normal 0 -1 0
  outer loop
   vertex 0 0 0
   vertex 14.9326 -0 0.00706671
   vertex 14.9271 -0 0.00828833
  endloop
 endfacet
 facet normal 0 -1 0
  outer loop
   vertex 0 0 0
   vertex 14.9271 -0 0.00828833
   vertex 14.9216 -0 0.00960594
  endloop
 endfacet
 facet normal 0 -1 0
  outer loop
   vertex 0 0 0
   vertex 14.9216 -0 0.00960594
   vertex 14.9161 -0 0.0110191
  endloop
 endfacet
endsolid frontal(Meshed)
