solid trasero(Meshed)
 facet normal 0 1 0
  outer loop
   vertex 14.7667 1 0.0987674
   vertex 14.7706 1 0.0947397
   vertex 0 1 0
  endloop
 endfacet
 facet normal 0 1 0
  outer loop
   vertex 14.7747 1 0.0907817
   vertex 0 1 0
   vertex 14.7706 1 0.0947397
  endloop
 endfacet
 facet normal 0 1 0
  outer loop
   vertex 14.7628 1 0.102864
   vertex 14.7667 1 0.0987674
   vertex 0 1 0
  endloop
 endfacet
 facet normal 0 1 0
  outer loop
   vertex 14.7788 1 0.0868948
   vertex 0 1 0
   vertex 14.7747 1 0.0907817
  endloop
 endfacet
 facet normal 0 1 0
  outer loop
   vertex 14.7589 1 0.107027
   vertex 14.7628 1 0.102864
   vertex 0 1 0
  endloop
 endfacet
 facet normal 0 1 0
  outer loop
   vertex 14.783 1 0.08308
   vertex 0 1 0
   vertex 14.7788 1 0.0868948
  endloop
 endfacet
 facet normal 0 1 0
  outer loop
   vertex 14.7552 1 0.111257
   vertex 14.7589 1 0.107027
   vertex 0 1 0
  endloop
 endfacet
 facet normal 0 1 0
  outer loop
   vertex 14.7872 1 0.0793385
   vertex 0 1 0
   vertex 14.783 1 0.08308
  endloop
 endfacet
 facet normal 0 1 0
  outer loop
   vertex 14.7515 1 0.115552
   vertex 14.7552 1 0.111257
   vertex 0 1 0
  endloop
 endfacet
 facet normal 0 1 0
  outer loop
   vertex 14.7915 1 0.0756715
   vertex 0 1 0
   vertex 14.7872 1 0.0793385
  endloop
 endfacet
 facet normal 0 1 0
  outer loop
   vertex 14.7479 1 0.11991
   vertex 14.7515 1 0.115552
   vertex 0 1 0
  endloop
 endfacet
 facet normal 0 1 0
  outer loop
   vertex 14.7959 1 0.07208
   vertex 0 1 0
   vertex 14.7915 1 0.0756715
  endloop
 endfacet
 facet normal 0 1 0
  outer loop
   vertex 14.7444 1 0.12433
   vertex 14.7479 1 0.11991
   vertex 0 1 0
  endloop
 endfacet
 facet normal 0 1 0
  outer loop
   vertex 14.8003 1 0.0685652
   vertex 0 1 0
   vertex 14.7959 1 0.07208
  endloop
 endfacet
 facet normal 0 1 0
  outer loop
   vertex 14.7409 1 0.128811
   vertex 14.7444 1 0.12433
   vertex 0 1 0
  endloop
 endfacet
 facet normal 0 1 0
  outer loop
   vertex 14.8048 1 0.0651282
   vertex 0 1 0
   vertex 14.8003 1 0.0685652
  endloop
 endfacet
 facet normal 0 1 0
  outer loop
   vertex 14.7375 1 0.133351
   vertex 14.7409 1 0.128811
   vertex 0 1 0
  endloop
 endfacet
 facet normal 0 1 0
  outer loop
   vertex 14.8094 1 0.0617699
   vertex 0 1 0
   vertex 14.8048 1 0.0651282
  endloop
 endfacet
 facet normal 0 1 0
  outer loop
   vertex 14.7342 1 0.13795
   vertex 14.7375 1 0.133351
   vertex 0 1 0
  endloop
 endfacet
 facet normal 0 1 0
  outer loop
   vertex 14.814 1 0.0584913
   vertex 0 1 0
   vertex 14.8094 1 0.0617699
  endloop
 endfacet
 facet normal 0 1 0
  outer loop
   vertex 14.731 1 0.142605
   vertex 14.7342 1 0.13795
   vertex 0 1 0
  endloop
 endfacet
 facet normal 0 1 0
  outer loop
   vertex 14.8187 1 0.0552936
   vertex 0 1 0
   vertex 14.814 1 0.0584913
  endloop
 endfacet
 facet normal 0 1 0
  outer loop
   vertex 14.7279 1 0.147315
   vertex 14.731 1 0.142605
   vertex 0 1 0
  endloop
 endfacet
 facet normal 0 1 0
  outer loop
   vertex 14.8234 1 0.0521776
   vertex 0 1 0
   vertex 14.8187 1 0.0552936
  endloop
 endfacet
 facet normal 0 1 0
  outer loop
   vertex 14.7248 1 0.15208
   vertex 14.7279 1 0.147315
   vertex 0 1 0
  endloop
 endfacet
 facet normal 0 1 0
  outer loop
   vertex 14.8282 1 0.0491443
   vertex 0 1 0
   vertex 14.8234 1 0.0521776
  endloop
 endfacet
 facet normal 0 1 0
  outer loop
   vertex 14.7219 1 0.156896
   vertex 14.7248 1 0.15208
   vertex 0 1 0
  endloop
 endfacet
 facet normal 0 1 0
  outer loop
   vertex 14.833 1 0.0461946
   vertex 0 1 0
   vertex 14.8282 1 0.0491443
  endloop
 endfacet
 facet normal 0 1 0
  outer loop
   vertex 14.719 1 0.161764
   vertex 14.7219 1 0.156896
   vertex 0 1 0
  endloop
 endfacet
 facet normal 0 1 0
  outer loop
   vertex 14.8379 1 0.0433294
   vertex 0 1 0
   vertex 14.833 1 0.0461946
  endloop
 endfacet
 facet normal 0 1 0
  outer loop
   vertex 14.7162 1 0.166681
   vertex 14.719 1 0.161764
   vertex 0 1 0
  endloop
 endfacet
 facet normal 0 1 0
  outer loop
   vertex 14.8428 1 0.0405495
   vertex 0 1 0
   vertex 14.8379 1 0.0433294
  endloop
 endfacet
 facet normal 0 1 0
  outer loop
   vertex 14.7135 1 0.171646
   vertex 14.7162 1 0.166681
   vertex 0 1 0
  endloop
 endfacet
 facet normal 0 1 0
  outer loop
   vertex 14.8478 1 0.0378559
   vertex 0 1 0
   vertex 14.8428 1 0.0405495
  endloop
 endfacet
 facet normal 0 1 0
  outer loop
   vertex 14.7108 1 0.176658
   vertex 14.7135 1 0.171646
   vertex 0 1 0
  endloop
 endfacet
 facet normal 0 1 0
  outer loop
   vertex 14.8528 1 0.0352493
   vertex 0 1 0
   vertex 14.8478 1 0.0378559
  endloop
 endfacet
 facet normal 0 1 0
  outer loop
   vertex 14.7083 1 0.181715
   vertex 14.7108 1 0.176658
   vertex 0 1 0
  endloop
 endfacet
 facet normal 0 1 0
  outer loop
   vertex 14.8579 1 0.0327306
   vertex 0 1 0
   vertex 14.8528 1 0.0352493
  endloop
 endfacet
 facet normal 0 1 0
  outer loop
   vertex 14.7058 1 0.186815
   vertex 14.7083 1 0.181715
   vertex 0 1 0
  endloop
 endfacet
 facet normal 0 1 0
  outer loop
   vertex 14.863 1 0.0303004
   vertex 0 1 0
   vertex 14.8579 1 0.0327306
  endloop
 endfacet
 facet normal 0 1 0
  outer loop
   vertex 14.7035 1 0.191956
   vertex 14.7058 1 0.186815
   vertex 0 1 0
  endloop
 endfacet
 facet normal 0 1 0
  outer loop
   vertex 14.8681 1 0.0279595
   vertex 0 1 0
   vertex 14.863 1 0.0303004
  endloop
 endfacet
 facet normal 0 1 0
  outer loop
   vertex 14.7012 1 0.197139
   vertex 14.7035 1 0.191956
   vertex 0 1 0
  endloop
 endfacet
 facet normal 0 1 0
  outer loop
   vertex 14.8733 1 0.0257087
   vertex 0 1 0
   vertex 14.8681 1 0.0279595
  endloop
 endfacet
 facet normal 0 1 0
  outer loop
   vertex 14.699 1 0.20236
   vertex 14.7012 1 0.197139
   vertex 0 1 0
  endloop
 endfacet
 facet normal 0 1 0
  outer loop
   vertex 14.8785 1 0.0235486
   vertex 0 1 0
   vertex 14.8733 1 0.0257087
  endloop
 endfacet
 facet normal 0 1 0
  outer loop
   vertex 14.6969 1 0.207618
   vertex 14.699 1 0.20236
   vertex 0 1 0
  endloop
 endfacet
 facet normal 0 1 0
  outer loop
   vertex 14.8838 1 0.0214798
   vertex 0 1 0
   vertex 14.8785 1 0.0235486
  endloop
 endfacet
 facet normal 0 1 0
  outer loop
   vertex 14.6949 1 0.212912
   vertex 14.6969 1 0.207618
   vertex 0 1 0
  endloop
 endfacet
 facet normal 0 1 0
  outer loop
   vertex 14.8891 1 0.019503
   vertex 0 1 0
   vertex 14.8838 1 0.0214798
  endloop
 endfacet
 facet normal 0 1 0
  outer loop
   vertex 14.693 1 0.218239
   vertex 14.6949 1 0.212912
   vertex 0 1 0
  endloop
 endfacet
 facet normal 0 1 0
  outer loop
   vertex 14.8944 1 0.0176189
   vertex 0 1 0
   vertex 14.8891 1 0.019503
  endloop
 endfacet
 facet normal 0 1 0
  outer loop
   vertex 14.6912 1 0.223599
   vertex 14.693 1 0.218239
   vertex 0 1 0
  endloop
 endfacet
 facet normal 0 1 0
  outer loop
   vertex 14.8998 1 0.0158279
   vertex 0 1 0
   vertex 14.8944 1 0.0176189
  endloop
 endfacet
 facet normal 0 1 0
  outer loop
   vertex 14.6895 1 0.22899
   vertex 14.6912 1 0.223599
   vertex 0 1 0
  endloop
 endfacet
 facet normal 0 1 0
  outer loop
   vertex 14.9052 1 0.0141306
   vertex 0 1 0
   vertex 14.8998 1 0.0158279
  endloop
 endfacet
 facet normal 0 1 0
  outer loop
   vertex 14.6879 1 0.23441
   vertex 14.6895 1 0.22899
   vertex 0 1 0
  endloop
 endfacet
 facet normal 0 1 0
  outer loop
   vertex 14.9106 1 0.0125275
   vertex 0 1 0
   vertex 14.9052 1 0.0141306
  endloop
 endfacet
 facet normal 0 1 0
  outer loop
   vertex 14.6864 1 0.239857
   vertex 14.6879 1 0.23441
   vertex 0 1 0
  endloop
 endfacet
 facet normal 0 1 0
  outer loop
   vertex 14.9161 1 0.0110191
   vertex 0 1 0
   vertex 14.9106 1 0.0125275
  endloop
 endfacet
 facet normal 0 1 0
  outer loop
   vertex 14.6849 1 0.245331
   vertex 14.6864 1 0.239857
   vertex 0 1 0
  endloop
 endfacet
 facet normal 0 1 0
  outer loop
   vertex 14.6836 1 0.250828
   vertex 14.6849 1 0.245331
   vertex 0 1 0
  endloop
 endfacet
 facet normal 0 1 0
  outer loop
   vertex 14.6823 1 0.256348
   vertex 14.6836 1 0.250828
   vertex 0 1 0
  endloop
 endfacet
 facet normal 0 1 0
  outer loop
   vertex 14.6812 1 0.261888
   vertex 14.6823 1 0.256348
   vertex 0 1 0
  endloop
 endfacet
 facet normal 0 1 0
  outer loop
   vertex 14.4519 1 1.12428
   vertex 14.7769 1 0.561361
   vertex 14.7729 1 0.557442
  endloop
 endfacet
 facet normal 0 1 0
  outer loop
   vertex 14.4519 1 1.12428
   vertex 14.7729 1 0.557442
   vertex 14.7688 1 0.553453
  endloop
 endfacet
 facet normal 0 1 0
  outer loop
   vertex 14.4519 1 1.12428
   vertex 14.7688 1 0.553453
   vertex 14.7649 1 0.549394
  endloop
 endfacet
 facet normal 0 1 0
  outer loop
   vertex 14.4519 1 1.12428
   vertex 14.7649 1 0.549394
   vertex 14.761 1 0.545267
  endloop
 endfacet
 facet normal 0 1 0
  outer loop
   vertex 14.4519 1 1.12428
   vertex 14.761 1 0.545267
   vertex 14.7572 1 0.541073
  endloop
 endfacet
 facet normal 0 1 0
  outer loop
   vertex 14.4519 1 1.12428
   vertex 14.7572 1 0.541073
   vertex 14.7535 1 0.536814
  endloop
 endfacet
 facet normal 0 1 0
  outer loop
   vertex 14.4519 1 1.12428
   vertex 14.7535 1 0.536814
   vertex 14.7499 1 0.532491
  endloop
 endfacet
 facet normal 0 1 0
  outer loop
   vertex 14.4519 1 1.12428
   vertex 14.7499 1 0.532491
   vertex 14.7463 1 0.528105
  endloop
 endfacet
 facet normal 0 1 0
  outer loop
   vertex 14.4519 1 1.12428
   vertex 14.7463 1 0.528105
   vertex 14.7428 1 0.523657
  endloop
 endfacet
 facet normal 0 1 0
  outer loop
   vertex 14.4519 1 1.12428
   vertex 14.7428 1 0.523657
   vertex 14.7394 1 0.519149
  endloop
 endfacet
 facet normal 0 1 0
  outer loop
   vertex 14.4519 1 1.12428
   vertex 14.7394 1 0.519149
   vertex 14.736 1 0.514582
  endloop
 endfacet
 facet normal 0 1 0
  outer loop
   vertex 14.4519 1 1.12428
   vertex 14.736 1 0.514582
   vertex 14.7328 1 0.509958
  endloop
 endfacet
 facet normal 0 1 0
  outer loop
   vertex 14.4519 1 1.12428
   vertex 14.7328 1 0.509958
   vertex 14.7296 1 0.505278
  endloop
 endfacet
 facet normal 0 1 0
  outer loop
   vertex 14.4519 1 1.12428
   vertex 14.7296 1 0.505278
   vertex 14.7265 1 0.500543
  endloop
 endfacet
 facet normal 0 1 0
  outer loop
   vertex 14.4519 1 1.12428
   vertex 14.7265 1 0.500543
   vertex 14.7235 1 0.495755
  endloop
 endfacet
 facet normal 0 1 0
  outer loop
   vertex 14.4519 1 1.12428
   vertex 14.7235 1 0.495755
   vertex 14.7205 1 0.490915
  endloop
 endfacet
 facet normal 0 1 0
  outer loop
   vertex 14.4519 1 1.12428
   vertex 14.7205 1 0.490915
   vertex 14.7177 1 0.486025
  endloop
 endfacet
 facet normal 0 1 0
  outer loop
   vertex 14.4519 1 1.12428
   vertex 14.7177 1 0.486025
   vertex 14.7149 1 0.481086
  endloop
 endfacet
 facet normal 0 1 0
  outer loop
   vertex 14.4519 1 1.12428
   vertex 14.7149 1 0.481086
   vertex 14.7123 1 0.476099
  endloop
 endfacet
 facet normal 0 1 0
  outer loop
   vertex 14.4519 1 1.12428
   vertex 14.7123 1 0.476099
   vertex 14.7097 1 0.471067
  endloop
 endfacet
 facet normal 0 1 0
  outer loop
   vertex 14.4519 1 1.12428
   vertex 14.7097 1 0.471067
   vertex 14.7072 1 0.465991
  endloop
 endfacet
 facet normal 0 1 0
  outer loop
   vertex 14.4519 1 1.12428
   vertex 14.7072 1 0.465991
   vertex 14.7048 1 0.460872
  endloop
 endfacet
 facet normal 0 1 0
  outer loop
   vertex 14.4519 1 1.12428
   vertex 0 1 0
   vertex 0 1 15
  endloop
 endfacet
 facet normal 0 1 0
  outer loop
   vertex 14.4519 1 1.12428
   vertex 14.7048 1 0.460872
   vertex 14.7024 1 0.455712
  endloop
 endfacet
 facet normal 0 1 0
  outer loop
   vertex 14.4519 1 1.12428
   vertex 14.7024 1 0.455712
   vertex 14.7002 1 0.450512
  endloop
 endfacet
 facet normal 0 1 0
  outer loop
   vertex 14.4519 1 1.12428
   vertex 14.7002 1 0.450512
   vertex 14.6981 1 0.445274
  endloop
 endfacet
 facet normal 0 1 0
  outer loop
   vertex 14.4519 1 1.12428
   vertex 14.6981 1 0.445274
   vertex 14.696 1 0.439999
  endloop
 endfacet
 facet normal 0 1 0
  outer loop
   vertex 14.4519 1 1.12428
   vertex 14.696 1 0.439999
   vertex 14.6941 1 0.43469
  endloop
 endfacet
 facet normal 0 1 0
  outer loop
   vertex 14.4519 1 1.12428
   vertex 14.6941 1 0.43469
   vertex 14.6922 1 0.429348
  endloop
 endfacet
 facet normal 0 1 0
  outer loop
   vertex 14.4519 1 1.12428
   vertex 14.6922 1 0.429348
   vertex 14.6904 1 0.423973
  endloop
 endfacet
 facet normal 0 1 0
  outer loop
   vertex 14.4519 1 1.12428
   vertex 14.6904 1 0.423973
   vertex 14.6888 1 0.418569
  endloop
 endfacet
 facet normal 0 1 0
  outer loop
   vertex 14.4519 1 1.12428
   vertex 14.6812 1 0.261888
   vertex 0 1 0
  endloop
 endfacet
 facet normal 0 1 0
  outer loop
   vertex 14.4519 1 1.12428
   vertex 14.6888 1 0.418569
   vertex 14.6872 1 0.413137
  endloop
 endfacet
 facet normal 0 1 0
  outer loop
   vertex 14.4519 1 1.12428
   vertex 14.6872 1 0.413137
   vertex 14.6857 1 0.407678
  endloop
 endfacet
 facet normal 0 1 0
  outer loop
   vertex 14.4519 1 1.12428
   vertex 14.6857 1 0.407678
   vertex 14.6843 1 0.402193
  endloop
 endfacet
 facet normal 0 1 0
  outer loop
   vertex 14.4519 1 1.12428
   vertex 14.6843 1 0.402193
   vertex 14.683 1 0.396686
  endloop
 endfacet
 facet normal 0 1 0
  outer loop
   vertex 14.4519 1 1.12428
   vertex 14.683 1 0.396686
   vertex 14.6818 1 0.391156
  endloop
 endfacet
 facet normal 0 1 0
  outer loop
   vertex 14.4519 1 1.12428
   vertex 14.6818 1 0.391156
   vertex 14.6807 1 0.385607
  endloop
 endfacet
 facet normal 0 1 0
  outer loop
   vertex 14.4519 1 1.12428
   vertex 14.6807 1 0.385607
   vertex 14.6797 1 0.380039
  endloop
 endfacet
 facet normal 0 1 0
  outer loop
   vertex 14.4519 1 1.12428
   vertex 14.6797 1 0.380039
   vertex 14.6788 1 0.374455
  endloop
 endfacet
 facet normal 0 1 0
  outer loop
   vertex 14.4519 1 1.12428
   vertex 14.6788 1 0.374455
   vertex 14.678 1 0.368855
  endloop
 endfacet
 facet normal 0 1 0
  outer loop
   vertex 14.4519 1 1.12428
   vertex 14.678 1 0.368855
   vertex 14.6773 1 0.363242
  endloop
 endfacet
 facet normal 0 1 0
  outer loop
   vertex 14.4519 1 1.12428
   vertex 14.6773 1 0.363242
   vertex 14.6766 1 0.357618
  endloop
 endfacet
 facet normal 0 1 0
  outer loop
   vertex 14.4519 1 1.12428
   vertex 14.6766 1 0.357618
   vertex 14.6761 1 0.351984
  endloop
 endfacet
 facet normal 0 1 0
  outer loop
   vertex 14.4519 1 1.12428
   vertex 14.6761 1 0.351984
   vertex 14.6757 1 0.346341
  endloop
 endfacet
 facet normal 0 1 0
  outer loop
   vertex 14.4519 1 1.12428
   vertex 14.6757 1 0.346341
   vertex 14.6754 1 0.340693
  endloop
 endfacet
 facet normal 0 1 0
  outer loop
   vertex 14.4519 1 1.12428
   vertex 14.6754 1 0.340693
   vertex 14.6752 1 0.335039
  endloop
 endfacet
 facet normal 0 1 0
  outer loop
   vertex 14.4519 1 1.12428
   vertex 14.6752 1 0.335039
   vertex 14.675 1 0.329382
  endloop
 endfacet
 facet normal 0 1 0
  outer loop
   vertex 14.4519 1 1.12428
   vertex 14.675 1 0.329382
   vertex 14.675 1 0.323724
  endloop
 endfacet
 facet normal 0 1 0
  outer loop
   vertex 14.4519 1 1.12428
   vertex 14.675 1 0.323724
   vertex 14.6751 1 0.318067
  endloop
 endfacet
 facet normal 0 1 0
  outer loop
   vertex 14.4519 1 1.12428
   vertex 14.6751 1 0.318067
   vertex 14.6752 1 0.312411
  endloop
 endfacet
 facet normal 0 1 0
  outer loop
   vertex 14.4519 1 1.12428
   vertex 14.6752 1 0.312411
   vertex 14.6755 1 0.306759
  endloop
 endfacet
 facet normal 0 1 0
  outer loop
   vertex 14.4519 1 1.12428
   vertex 14.6755 1 0.306759
   vertex 14.6759 1 0.301113
  endloop
 endfacet
 facet normal 0 1 0
  outer loop
   vertex 14.4519 1 1.12428
   vertex 14.6759 1 0.301113
   vertex 14.6763 1 0.295474
  endloop
 endfacet
 facet normal 0 1 0
  outer loop
   vertex 14.4519 1 1.12428
   vertex 14.6763 1 0.295474
   vertex 14.6769 1 0.289844
  endloop
 endfacet
 facet normal 0 1 0
  outer loop
   vertex 14.4519 1 1.12428
   vertex 14.6769 1 0.289844
   vertex 14.6776 1 0.284225
  endloop
 endfacet
 facet normal 0 1 0
  outer loop
   vertex 14.4519 1 1.12428
   vertex 14.6776 1 0.284225
   vertex 14.6783 1 0.278618
  endloop
 endfacet
 facet normal 0 1 0
  outer loop
   vertex 14.4519 1 1.12428
   vertex 14.6783 1 0.278618
   vertex 14.6792 1 0.273025
  endloop
 endfacet
 facet normal 0 1 0
  outer loop
   vertex 14.4519 1 1.12428
   vertex 14.6792 1 0.273025
   vertex 14.6801 1 0.267448
  endloop
 endfacet
 facet normal 0 1 0
  outer loop
   vertex 14.4519 1 1.12428
   vertex 14.6801 1 0.267448
   vertex 14.6812 1 0.261888
  endloop
 endfacet
 facet normal 0 1 0
  outer loop
   vertex 14.5818 1 1.19928
   vertex 15 1 0.65
   vertex 14.9944 1 0.649952
  endloop
 endfacet
 facet normal 0 1 0
  outer loop
   vertex 14.5818 1 1.19928
   vertex 14.9944 1 0.649952
   vertex 14.9889 1 0.64981
  endloop
 endfacet
 facet normal 0 1 0
  outer loop
   vertex 14.5818 1 1.19928
   vertex 14.9889 1 0.64981
   vertex 14.9833 1 0.649572
  endloop
 endfacet
 facet normal 0 1 0
  outer loop
   vertex 14.5818 1 1.19928
   vertex 14.9833 1 0.649572
   vertex 14.9778 1 0.64924
  endloop
 endfacet
 facet normal 0 1 0
  outer loop
   vertex 14.5818 1 1.19928
   vertex 14.9778 1 0.64924
   vertex 14.9722 1 0.648813
  endloop
 endfacet
 facet normal 0 1 0
  outer loop
   vertex 14.5818 1 1.19928
   vertex 14.9722 1 0.648813
   vertex 14.9667 1 0.648291
  endloop
 endfacet
 facet normal 0 1 0
  outer loop
   vertex 14.5818 1 1.19928
   vertex 14.9667 1 0.648291
   vertex 14.9612 1 0.647674
  endloop
 endfacet
 facet normal 0 1 0
  outer loop
   vertex 14.5818 1 1.19928
   vertex 14.9612 1 0.647674
   vertex 14.9557 1 0.646963
  endloop
 endfacet
 facet normal 0 1 0
  outer loop
   vertex 14.5818 1 1.19928
   vertex 14.9557 1 0.646963
   vertex 14.9502 1 0.646158
  endloop
 endfacet
 facet normal 0 1 0
  outer loop
   vertex 14.5818 1 1.19928
   vertex 14.9502 1 0.646158
   vertex 14.9447 1 0.645259
  endloop
 endfacet
 facet normal 0 1 0
  outer loop
   vertex 14.5818 1 1.19928
   vertex 14.9447 1 0.645259
   vertex 14.9392 1 0.644266
  endloop
 endfacet
 facet normal 0 1 0
  outer loop
   vertex 14.5818 1 1.19928
   vertex 14.9392 1 0.644266
   vertex 14.9338 1 0.64318
  endloop
 endfacet
 facet normal 0 1 0
  outer loop
   vertex 14.5818 1 1.19928
   vertex 14.9338 1 0.64318
   vertex 14.9283 1 0.642001
  endloop
 endfacet
 facet normal 0 1 0
  outer loop
   vertex 14.5818 1 1.19928
   vertex 14.9283 1 0.642001
   vertex 14.9229 1 0.640729
  endloop
 endfacet
 facet normal 0 1 0
  outer loop
   vertex 14.5818 1 1.19928
   vertex 14.9229 1 0.640729
   vertex 14.9175 1 0.639365
  endloop
 endfacet
 facet normal 0 1 0
  outer loop
   vertex 14.5818 1 1.19928
   vertex 14.9175 1 0.639365
   vertex 14.9122 1 0.637909
  endloop
 endfacet
 facet normal 0 1 0
  outer loop
   vertex 14.5818 1 1.19928
   vertex 14.9122 1 0.637909
   vertex 14.9068 1 0.636361
  endloop
 endfacet
 facet normal 0 1 0
  outer loop
   vertex 14.5818 1 1.19928
   vertex 14.4519 1 1.12428
   vertex 0 1 15
  endloop
 endfacet
 facet normal 0 1 0
  outer loop
   vertex 15.4182 1 1.19928
   vertex 15.0388 1 0.647674
   vertex 15.0333 1 0.648291
  endloop
 endfacet
 facet normal 0 1 0
  outer loop
   vertex 15.4182 1 1.19928
   vertex 15.0333 1 0.648291
   vertex 15.0278 1 0.648813
  endloop
 endfacet
 facet normal 0 1 0
  outer loop
   vertex 15.4182 1 1.19928
   vertex 15.0278 1 0.648813
   vertex 15.0222 1 0.64924
  endloop
 endfacet
 facet normal 0 1 0
  outer loop
   vertex 15.4182 1 1.19928
   vertex 15.0222 1 0.64924
   vertex 15.0167 1 0.649572
  endloop
 endfacet
 facet normal 0 1 0
  outer loop
   vertex 15.4182 1 1.19928
   vertex 15.0167 1 0.649572
   vertex 15.0111 1 0.64981
  endloop
 endfacet
 facet normal 0 1 0
  outer loop
   vertex 15.4182 1 1.19928
   vertex 15.0111 1 0.64981
   vertex 15.0056 1 0.649952
  endloop
 endfacet
 facet normal 0 1 0
  outer loop
   vertex 15.4182 1 1.19928
   vertex 15.0056 1 0.649952
   vertex 15 1 0.65
  endloop
 endfacet
 facet normal 0 1 0
  outer loop
   vertex 15.4182 1 1.19928
   vertex 15 1 0.65
   vertex 14.5818 1 1.19928
  endloop
 endfacet
 facet normal 0 1 0
  outer loop
   vertex 15.4182 1 1.19928
   vertex 15.0932 1 0.636361
   vertex 15.0878 1 0.637909
  endloop
 endfacet
 facet normal 0 1 0
  outer loop
   vertex 15.4182 1 1.19928
   vertex 15.0878 1 0.637909
   vertex 15.0825 1 0.639365
  endloop
 endfacet
 facet normal 0 1 0
  outer loop
   vertex 15.4182 1 1.19928
   vertex 15.0825 1 0.639365
   vertex 15.0771 1 0.640729
  endloop
 endfacet
 facet normal 0 1 0
  outer loop
   vertex 15.4182 1 1.19928
   vertex 15.0771 1 0.640729
   vertex 15.0717 1 0.642001
  endloop
 endfacet
 facet normal 0 1 0
  outer loop
   vertex 15.4182 1 1.19928
   vertex 15.0717 1 0.642001
   vertex 15.0662 1 0.64318
  endloop
 endfacet
 facet normal 0 1 0
  outer loop
   vertex 15.4182 1 1.19928
   vertex 15.0662 1 0.64318
   vertex 15.0608 1 0.644266
  endloop
 endfacet
 facet normal 0 1 0
  outer loop
   vertex 15.4182 1 1.19928
   vertex 15.0608 1 0.644266
   vertex 15.0553 1 0.645259
  endloop
 endfacet
 facet normal 0 1 0
  outer loop
   vertex 15.4182 1 1.19928
   vertex 15.0553 1 0.645259
   vertex 15.0498 1 0.646158
  endloop
 endfacet
 facet normal 0 1 0
  outer loop
   vertex 15.4182 1 1.19928
   vertex 15.0498 1 0.646158
   vertex 15.0443 1 0.646963
  endloop
 endfacet
 facet normal 0 1 0
  outer loop
   vertex 15.4182 1 1.19928
   vertex 15.0443 1 0.646963
   vertex 15.0388 1 0.647674
  endloop
 endfacet
 facet normal 0 1 0
  outer loop
   vertex 15.5481 1 1.12428
   vertex 15.3188 1 0.261888
   vertex 15.3199 1 0.267448
  endloop
 endfacet
 facet normal 0 1 0
  outer loop
   vertex 15.5481 1 1.12428
   vertex 15.3199 1 0.267448
   vertex 15.3208 1 0.273025
  endloop
 endfacet
 facet normal 0 1 0
  outer loop
   vertex 15.5481 1 1.12428
   vertex 15.3208 1 0.273025
   vertex 15.3217 1 0.278618
  endloop
 endfacet
 facet normal 0 1 0
  outer loop
   vertex 15.5481 1 1.12428
   vertex 15.3217 1 0.278618
   vertex 15.3224 1 0.284225
  endloop
 endfacet
 facet normal 0 1 0
  outer loop
   vertex 15.5481 1 1.12428
   vertex 15.3224 1 0.284225
   vertex 15.3231 1 0.289844
  endloop
 endfacet
 facet normal 0 1 0
  outer loop
   vertex 15.5481 1 1.12428
   vertex 15.3231 1 0.289844
   vertex 15.3237 1 0.295474
  endloop
 endfacet
 facet normal 0 1 0
  outer loop
   vertex 15.5481 1 1.12428
   vertex 15.3237 1 0.295474
   vertex 15.3241 1 0.301113
  endloop
 endfacet
 facet normal 0 1 0
  outer loop
   vertex 15.5481 1 1.12428
   vertex 15.3241 1 0.301113
   vertex 15.3245 1 0.306759
  endloop
 endfacet
 facet normal 0 1 0
  outer loop
   vertex 15.5481 1 1.12428
   vertex 15.3245 1 0.306759
   vertex 15.3248 1 0.312411
  endloop
 endfacet
 facet normal 0 1 0
  outer loop
   vertex 15.5481 1 1.12428
   vertex 15.3248 1 0.312411
   vertex 15.3249 1 0.318067
  endloop
 endfacet
 facet normal 0 1 0
  outer loop
   vertex 15.5481 1 1.12428
   vertex 15.3249 1 0.318067
   vertex 15.325 1 0.323724
  endloop
 endfacet
 facet normal 0 1 0
  outer loop
   vertex 15.5481 1 1.12428
   vertex 15.325 1 0.323724
   vertex 15.325 1 0.329382
  endloop
 endfacet
 facet normal 0 1 0
  outer loop
   vertex 15.5481 1 1.12428
   vertex 15.325 1 0.329382
   vertex 15.3248 1 0.335039
  endloop
 endfacet
 facet normal 0 1 0
  outer loop
   vertex 15.5481 1 1.12428
   vertex 15.3248 1 0.335039
   vertex 15.3246 1 0.340693
  endloop
 endfacet
 facet normal 0 1 0
  outer loop
   vertex 15.5481 1 1.12428
   vertex 15.3246 1 0.340693
   vertex 15.3243 1 0.346341
  endloop
 endfacet
 facet normal 0 1 0
  outer loop
   vertex 15.5481 1 1.12428
   vertex 15.3243 1 0.346341
   vertex 15.3239 1 0.351984
  endloop
 endfacet
 facet normal 0 1 0
  outer loop
   vertex 15.5481 1 1.12428
   vertex 15.3239 1 0.351984
   vertex 15.3234 1 0.357618
  endloop
 endfacet
 facet normal 0 1 0
  outer loop
   vertex 15.5481 1 1.12428
   vertex 15.3234 1 0.357618
   vertex 15.3227 1 0.363242
  endloop
 endfacet
 facet normal 0 1 0
  outer loop
   vertex 15.5481 1 1.12428
   vertex 15.3227 1 0.363242
   vertex 15.322 1 0.368855
  endloop
 endfacet
 facet normal 0 1 0
  outer loop
   vertex 15.5481 1 1.12428
   vertex 15.322 1 0.368855
   vertex 15.3212 1 0.374455
  endloop
 endfacet
 facet normal 0 1 0
  outer loop
   vertex 15.5481 1 1.12428
   vertex 15.3212 1 0.374455
   vertex 15.3203 1 0.380039
  endloop
 endfacet
 facet normal 0 1 0
  outer loop
   vertex 15.5481 1 1.12428
   vertex 15.3203 1 0.380039
   vertex 15.3193 1 0.385607
  endloop
 endfacet
 facet normal 0 1 0
  outer loop
   vertex 15.5481 1 1.12428
   vertex 15.3193 1 0.385607
   vertex 15.3182 1 0.391156
  endloop
 endfacet
 facet normal 0 1 0
  outer loop
   vertex 15.5481 1 1.12428
   vertex 15.3182 1 0.391156
   vertex 15.317 1 0.396686
  endloop
 endfacet
 facet normal 0 1 0
  outer loop
   vertex 15.5481 1 1.12428
   vertex 15.317 1 0.396686
   vertex 15.3157 1 0.402193
  endloop
 endfacet
 facet normal 0 1 0
  outer loop
   vertex 15.5481 1 1.12428
   vertex 15.3157 1 0.402193
   vertex 15.3143 1 0.407678
  endloop
 endfacet
 facet normal 0 1 0
  outer loop
   vertex 15.5481 1 1.12428
   vertex 15.3143 1 0.407678
   vertex 15.3128 1 0.413137
  endloop
 endfacet
 facet normal 0 1 0
  outer loop
   vertex 15.5481 1 1.12428
   vertex 15.3128 1 0.413137
   vertex 15.3112 1 0.418569
  endloop
 endfacet
 facet normal 0 1 0
  outer loop
   vertex 15.5481 1 1.12428
   vertex 15.3112 1 0.418569
   vertex 15.3096 1 0.423973
  endloop
 endfacet
 facet normal 0 1 0
  outer loop
   vertex 15.5481 1 1.12428
   vertex 15.3096 1 0.423973
   vertex 15.3078 1 0.429348
  endloop
 endfacet
 facet normal 0 1 0
  outer loop
   vertex 15.5481 1 1.12428
   vertex 15.3078 1 0.429348
   vertex 15.3059 1 0.43469
  endloop
 endfacet
 facet normal 0 1 0
  outer loop
   vertex 15.5481 1 1.12428
   vertex 15.3059 1 0.43469
   vertex 15.304 1 0.439999
  endloop
 endfacet
 facet normal 0 1 0
  outer loop
   vertex 15.5481 1 1.12428
   vertex 15.304 1 0.439999
   vertex 15.3019 1 0.445274
  endloop
 endfacet
 facet normal 0 1 0
  outer loop
   vertex 15.5481 1 1.12428
   vertex 15.3019 1 0.445274
   vertex 15.2998 1 0.450512
  endloop
 endfacet
 facet normal 0 1 0
  outer loop
   vertex 15.5481 1 1.12428
   vertex 15.2998 1 0.450512
   vertex 15.2976 1 0.455712
  endloop
 endfacet
 facet normal 0 1 0
  outer loop
   vertex 15.5481 1 1.12428
   vertex 15.2976 1 0.455712
   vertex 15.2952 1 0.460872
  endloop
 endfacet
 facet normal 0 1 0
  outer loop
   vertex 15.5481 1 1.12428
   vertex 15.2952 1 0.460872
   vertex 15.2928 1 0.465991
  endloop
 endfacet
 facet normal 0 1 0
  outer loop
   vertex 15.5481 1 1.12428
   vertex 15.2928 1 0.465991
   vertex 15.2903 1 0.471067
  endloop
 endfacet
 facet normal 0 1 0
  outer loop
   vertex 15.5481 1 1.12428
   vertex 15.2903 1 0.471067
   vertex 15.2877 1 0.476099
  endloop
 endfacet
 facet normal 0 1 0
  outer loop
   vertex 15.5481 1 1.12428
   vertex 15.2877 1 0.476099
   vertex 15.2851 1 0.481086
  endloop
 endfacet
 facet normal 0 1 0
  outer loop
   vertex 15.5481 1 1.12428
   vertex 15.2851 1 0.481086
   vertex 15.2823 1 0.486025
  endloop
 endfacet
 facet normal 0 1 0
  outer loop
   vertex 15.5481 1 1.12428
   vertex 15.2823 1 0.486025
   vertex 15.2795 1 0.490915
  endloop
 endfacet
 facet normal 0 1 0
  outer loop
   vertex 15.5481 1 1.12428
   vertex 15.2795 1 0.490915
   vertex 15.2765 1 0.495755
  endloop
 endfacet
 facet normal 0 1 0
  outer loop
   vertex 15.5481 1 1.12428
   vertex 15.2765 1 0.495755
   vertex 15.2735 1 0.500543
  endloop
 endfacet
 facet normal 0 1 0
  outer loop
   vertex 15.5481 1 1.12428
   vertex 15.2735 1 0.500543
   vertex 15.2704 1 0.505278
  endloop
 endfacet
 facet normal 0 1 0
  outer loop
   vertex 15.5481 1 1.12428
   vertex 15.2704 1 0.505278
   vertex 15.2672 1 0.509958
  endloop
 endfacet
 facet normal 0 1 0
  outer loop
   vertex 15.5481 1 1.12428
   vertex 15.2672 1 0.509958
   vertex 15.264 1 0.514582
  endloop
 endfacet
 facet normal 0 1 0
  outer loop
   vertex 15.5481 1 1.12428
   vertex 15.264 1 0.514582
   vertex 15.2606 1 0.519149
  endloop
 endfacet
 facet normal 0 1 0
  outer loop
   vertex 15.5481 1 1.12428
   vertex 15.2606 1 0.519149
   vertex 15.2572 1 0.523657
  endloop
 endfacet
 facet normal 0 1 0
  outer loop
   vertex 15.5481 1 1.12428
   vertex 15.2572 1 0.523657
   vertex 15.2537 1 0.528105
  endloop
 endfacet
 facet normal 0 1 0
  outer loop
   vertex 15.5481 1 1.12428
   vertex 15.2537 1 0.528105
   vertex 15.2501 1 0.532491
  endloop
 endfacet
 facet normal 0 1 0
  outer loop
   vertex 15.5481 1 1.12428
   vertex 15.2501 1 0.532491
   vertex 15.2465 1 0.536814
  endloop
 endfacet
 facet normal 0 1 0
  outer loop
   vertex 15.5481 1 1.12428
   vertex 15.2465 1 0.536814
   vertex 15.2428 1 0.541073
  endloop
 endfacet
 facet normal 0 1 0
  outer loop
   vertex 15.5481 1 1.12428
   vertex 15.2428 1 0.541073
   vertex 15.239 1 0.545267
  endloop
 endfacet
 facet normal 0 1 0
  outer loop
   vertex 15.5481 1 1.12428
   vertex 15.239 1 0.545267
   vertex 15.2351 1 0.549394
  endloop
 endfacet
 facet normal 0 1 0
  outer loop
   vertex 15.5481 1 1.12428
   vertex 15.2351 1 0.549394
   vertex 15.2312 1 0.553453
  endloop
 endfacet
 facet normal 0 1 0
  outer loop
   vertex 15.5481 1 1.12428
   vertex 15.2312 1 0.553453
   vertex 15.2271 1 0.557442
  endloop
 endfacet
 facet normal 0 1 0
  outer loop
   vertex 15.5481 1 1.12428
   vertex 15.2271 1 0.557442
   vertex 15.2231 1 0.561361
  endloop
 endfacet
 facet normal 0 1 0
  outer loop
   vertex 30 1 0
   vertex 15.2448 1 0.111257
   vertex 15.2485 1 0.115552
  endloop
 endfacet
 facet normal 0 1 0
  outer loop
   vertex 30 1 0
   vertex 15.2485 1 0.115552
   vertex 15.2521 1 0.11991
  endloop
 endfacet
 facet normal 0 1 0
  outer loop
   vertex 30 1 0
   vertex 15.2521 1 0.11991
   vertex 15.2556 1 0.12433
  endloop
 endfacet
 facet normal 0 1 0
  outer loop
   vertex 30 1 0
   vertex 15.2556 1 0.12433
   vertex 15.2591 1 0.128811
  endloop
 endfacet
 facet normal 0 1 0
  outer loop
   vertex 30 1 0
   vertex 15.2591 1 0.128811
   vertex 15.2625 1 0.133351
  endloop
 endfacet
 facet normal 0 1 0
  outer loop
   vertex 30 1 0
   vertex 15.2625 1 0.133351
   vertex 15.2658 1 0.13795
  endloop
 endfacet
 facet normal 0 1 0
  outer loop
   vertex 30 1 0
   vertex 15.2658 1 0.13795
   vertex 15.269 1 0.142605
  endloop
 endfacet
 facet normal 0 1 0
  outer loop
   vertex 30 1 0
   vertex 15.269 1 0.142605
   vertex 15.2721 1 0.147315
  endloop
 endfacet
 facet normal 0 1 0
  outer loop
   vertex 30 1 0
   vertex 15.2721 1 0.147315
   vertex 15.2752 1 0.15208
  endloop
 endfacet
 facet normal 0 1 0
  outer loop
   vertex 30 1 0
   vertex 15.2752 1 0.15208
   vertex 15.2781 1 0.156896
  endloop
 endfacet
 facet normal 0 1 0
  outer loop
   vertex 30 1 0
   vertex 15.2781 1 0.156896
   vertex 15.281 1 0.161764
  endloop
 endfacet
 facet normal 0 1 0
  outer loop
   vertex 30 1 0
   vertex 15.281 1 0.161764
   vertex 15.2838 1 0.166681
  endloop
 endfacet
 facet normal 0 1 0
  outer loop
   vertex 30 1 0
   vertex 15.2838 1 0.166681
   vertex 15.2865 1 0.171646
  endloop
 endfacet
 facet normal 0 1 0
  outer loop
   vertex 30 1 0
   vertex 15.2865 1 0.171646
   vertex 15.2892 1 0.176658
  endloop
 endfacet
 facet normal 0 1 0
  outer loop
   vertex 30 1 0
   vertex 15.2892 1 0.176658
   vertex 15.2917 1 0.181715
  endloop
 endfacet
 facet normal 0 1 0
  outer loop
   vertex 30 1 0
   vertex 15.2917 1 0.181715
   vertex 15.2942 1 0.186815
  endloop
 endfacet
 facet normal 0 1 0
  outer loop
   vertex 30 1 0
   vertex 15.2942 1 0.186815
   vertex 15.2965 1 0.191956
  endloop
 endfacet
 facet normal 0 1 0
  outer loop
   vertex 30 1 0
   vertex 15.2965 1 0.191956
   vertex 15.2988 1 0.197139
  endloop
 endfacet
 facet normal 0 1 0
  outer loop
   vertex 30 1 0
   vertex 15.2988 1 0.197139
   vertex 15.301 1 0.20236
  endloop
 endfacet
 facet normal 0 1 0
  outer loop
   vertex 30 1 0
   vertex 15.301 1 0.20236
   vertex 15.3031 1 0.207618
  endloop
 endfacet
 facet normal 0 1 0
  outer loop
   vertex 30 1 0
   vertex 15.3031 1 0.207618
   vertex 15.3051 1 0.212912
  endloop
 endfacet
 facet normal 0 1 0
  outer loop
   vertex 30 1 0
   vertex 15.3051 1 0.212912
   vertex 15.307 1 0.218239
  endloop
 endfacet
 facet normal 0 1 0
  outer loop
   vertex 30 1 0
   vertex 15.307 1 0.218239
   vertex 15.3088 1 0.223599
  endloop
 endfacet
 facet normal 0 1 0
  outer loop
   vertex 30 1 0
   vertex 15.3088 1 0.223599
   vertex 15.3105 1 0.22899
  endloop
 endfacet
 facet normal 0 1 0
  outer loop
   vertex 30 1 0
   vertex 15.3105 1 0.22899
   vertex 15.3121 1 0.23441
  endloop
 endfacet
 facet normal 0 1 0
  outer loop
   vertex 30 1 0
   vertex 15.3121 1 0.23441
   vertex 15.3136 1 0.239857
  endloop
 endfacet
 facet normal 0 1 0
  outer loop
   vertex 30 1 0
   vertex 15.3136 1 0.239857
   vertex 15.3151 1 0.245331
  endloop
 endfacet
 facet normal 0 1 0
  outer loop
   vertex 30 1 0
   vertex 15.3151 1 0.245331
   vertex 15.3164 1 0.250828
  endloop
 endfacet
 facet normal 0 1 0
  outer loop
   vertex 30 1 0
   vertex 15.3164 1 0.250828
   vertex 15.3177 1 0.256348
  endloop
 endfacet
 facet normal 0 1 0
  outer loop
   vertex 30 1 0
   vertex 15.3177 1 0.256348
   vertex 15.3188 1 0.261888
  endloop
 endfacet
 facet normal 0 1 0
  outer loop
   vertex 30 1 0
   vertex 15.0619 1 0.00594145
   vertex 15.0674 1 0.00706671
  endloop
 endfacet
 facet normal 0 1 0
  outer loop
   vertex 30 1 0
   vertex 15.0674 1 0.00706671
   vertex 15.0729 1 0.00828833
  endloop
 endfacet
 facet normal 0 1 0
  outer loop
   vertex 30 1 0
   vertex 15.0729 1 0.00828833
   vertex 15.0784 1 0.00960594
  endloop
 endfacet
 facet normal 0 1 0
  outer loop
   vertex 30 1 0
   vertex 15.0784 1 0.00960594
   vertex 15.0839 1 0.0110191
  endloop
 endfacet
 facet normal 0 1 0
  outer loop
   vertex 30 1 0
   vertex 15.0839 1 0.0110191
   vertex 15.0894 1 0.0125275
  endloop
 endfacet
 facet normal 0 1 0
  outer loop
   vertex 30 1 0
   vertex 15.0894 1 0.0125275
   vertex 15.0948 1 0.0141306
  endloop
 endfacet
 facet normal 0 1 0
  outer loop
   vertex 30 1 0
   vertex 15.0948 1 0.0141306
   vertex 15.1002 1 0.0158279
  endloop
 endfacet
 facet normal 0 1 0
  outer loop
   vertex 30 1 0
   vertex 15.1002 1 0.0158279
   vertex 15.1056 1 0.0176189
  endloop
 endfacet
 facet normal 0 1 0
  outer loop
   vertex 30 1 0
   vertex 15.1056 1 0.0176189
   vertex 15.1109 1 0.019503
  endloop
 endfacet
 facet normal 0 1 0
  outer loop
   vertex 30 1 0
   vertex 15.3188 1 0.261888
   vertex 15.5481 1 1.12428
  endloop
 endfacet
 facet normal 0 1 0
  outer loop
   vertex 30 1 0
   vertex 15.1109 1 0.019503
   vertex 15.1162 1 0.0214798
  endloop
 endfacet
 facet normal 0 1 0
  outer loop
   vertex 30 1 0
   vertex 15.1162 1 0.0214798
   vertex 15.1215 1 0.0235486
  endloop
 endfacet
 facet normal 0 1 0
  outer loop
   vertex 30 1 0
   vertex 15.1215 1 0.0235486
   vertex 15.1267 1 0.0257087
  endloop
 endfacet
 facet normal 0 1 0
  outer loop
   vertex 30 1 0
   vertex 15.1267 1 0.0257087
   vertex 15.1319 1 0.0279595
  endloop
 endfacet
 facet normal 0 1 0
  outer loop
   vertex 30 1 0
   vertex 15.1319 1 0.0279595
   vertex 15.137 1 0.0303004
  endloop
 endfacet
 facet normal 0 1 0
  outer loop
   vertex 30 1 0
   vertex 15.137 1 0.0303004
   vertex 15.1421 1 0.0327306
  endloop
 endfacet
 facet normal 0 1 0
  outer loop
   vertex 30 1 0
   vertex 15.1421 1 0.0327306
   vertex 15.1472 1 0.0352493
  endloop
 endfacet
 facet normal 0 1 0
  outer loop
   vertex 30 1 0
   vertex 15.1472 1 0.0352493
   vertex 15.1522 1 0.0378559
  endloop
 endfacet
 facet normal 0 1 0
  outer loop
   vertex 30 1 0
   vertex 15.1522 1 0.0378559
   vertex 15.1572 1 0.0405495
  endloop
 endfacet
 facet normal 0 1 0
  outer loop
   vertex 30 1 0
   vertex 15.1572 1 0.0405495
   vertex 15.1621 1 0.0433294
  endloop
 endfacet
 facet normal 0 1 0
  outer loop
   vertex 30 1 0
   vertex 15.1621 1 0.0433294
   vertex 15.167 1 0.0461946
  endloop
 endfacet
 facet normal 0 1 0
  outer loop
   vertex 30 1 0
   vertex 15.167 1 0.0461946
   vertex 15.1718 1 0.0491443
  endloop
 endfacet
 facet normal 0 1 0
  outer loop
   vertex 30 1 0
   vertex 15.1718 1 0.0491443
   vertex 15.1766 1 0.0521776
  endloop
 endfacet
 facet normal 0 1 0
  outer loop
   vertex 30 1 0
   vertex 15.1766 1 0.0521776
   vertex 15.1813 1 0.0552936
  endloop
 endfacet
 facet normal 0 1 0
  outer loop
   vertex 30 1 0
   vertex 15.1813 1 0.0552936
   vertex 15.186 1 0.0584913
  endloop
 endfacet
 facet normal 0 1 0
  outer loop
   vertex 30 1 0
   vertex 15.186 1 0.0584913
   vertex 15.1906 1 0.0617699
  endloop
 endfacet
 facet normal 0 1 0
  outer loop
   vertex 30 1 0
   vertex 15.1906 1 0.0617699
   vertex 15.1952 1 0.0651282
  endloop
 endfacet
 facet normal 0 1 0
  outer loop
   vertex 30 1 0
   vertex 15.1952 1 0.0651282
   vertex 15.1997 1 0.0685652
  endloop
 endfacet
 facet normal 0 1 0
  outer loop
   vertex 30 1 0
   vertex 15.1997 1 0.0685652
   vertex 15.2041 1 0.07208
  endloop
 endfacet
 facet normal 0 1 0
  outer loop
   vertex 30 1 0
   vertex 15.2041 1 0.07208
   vertex 15.2085 1 0.0756715
  endloop
 endfacet
 facet normal 0 1 0
  outer loop
   vertex 30 1 0
   vertex 15.2085 1 0.0756715
   vertex 15.2128 1 0.0793385
  endloop
 endfacet
 facet normal 0 1 0
  outer loop
   vertex 30 1 0
   vertex 15.2128 1 0.0793385
   vertex 15.217 1 0.08308
  endloop
 endfacet
 facet normal 0 1 0
  outer loop
   vertex 30 1 0
   vertex 15.217 1 0.08308
   vertex 15.2212 1 0.0868948
  endloop
 endfacet
 facet normal 0 1 0
  outer loop
   vertex 30 1 0
   vertex 15.2212 1 0.0868948
   vertex 15.2253 1 0.0907817
  endloop
 endfacet
 facet normal 0 1 0
  outer loop
   vertex 30 1 0
   vertex 15.2253 1 0.0907817
   vertex 15.2294 1 0.0947397
  endloop
 endfacet
 facet normal 0 1 0
  outer loop
   vertex 30 1 0
   vertex 15.2294 1 0.0947397
   vertex 15.2333 1 0.0987674
  endloop
 endfacet
 facet normal 0 1 0
  outer loop
   vertex 30 1 0
   vertex 15.2333 1 0.0987674
   vertex 15.2372 1 0.102864
  endloop
 endfacet
 facet normal 0 1 0
  outer loop
   vertex 30 1 0
   vertex 15.2372 1 0.102864
   vertex 15.2411 1 0.107027
  endloop
 endfacet
 facet normal 0 1 0
  outer loop
   vertex 30 1 0
   vertex 15.2411 1 0.107027
   vertex 15.2448 1 0.111257
  endloop
 endfacet
 facet normal 0 1 0
  outer loop
   vertex 30 1 15
   vertex 15.4182 1 1.19928
   vertex 14.5818 1 1.19928
  endloop
 endfacet
 facet normal 0 1 0
  outer loop
   vertex 30 1 15
   vertex 30 1 0
   vertex 15.5481 1 1.12428
  endloop
 endfacet
 facet normal 0 1 0
  outer loop
   vertex 30 1 15
   vertex 14.5818 1 1.19928
   vertex 0 1 15
  endloop
 endfacet
 facet normal 0 1 0
  outer loop
   vertex 30 1 15
   vertex 15.5481 1 1.12428
   vertex 15.4182 1 1.19928
  endloop
 endfacet
 facet normal 0 1 0
  outer loop
   vertex 15 1 0
   vertex 0 1 0
   vertex 14.9943 1 4.9252e-05
  endloop
 endfacet
 facet normal 0 1 0
  outer loop
   vertex 14.9943 1 4.9252e-05
   vertex 0 1 0
   vertex 14.9887 1 0.000196993
  endloop
 endfacet
 facet normal 0 1 0
  outer loop
   vertex 14.9887 1 0.000196993
   vertex 0 1 0
   vertex 14.983 1 0.000443178
  endloop
 endfacet
 facet normal 0 1 0
  outer loop
   vertex 14.983 1 0.000443178
   vertex 0 1 0
   vertex 14.9774 1 0.000787733
  endloop
 endfacet
 facet normal 0 1 0
  outer loop
   vertex 14.9774 1 0.000787733
   vertex 0 1 0
   vertex 14.9717 1 0.00123055
  endloop
 endfacet
 facet normal 0 1 0
  outer loop
   vertex 14.9717 1 0.00123055
   vertex 0 1 0
   vertex 14.9661 1 0.0017715
  endloop
 endfacet
 facet normal 0 1 0
  outer loop
   vertex 14.9661 1 0.0017715
   vertex 0 1 0
   vertex 14.9605 1 0.00241042
  endloop
 endfacet
 facet normal 0 1 0
  outer loop
   vertex 14.9605 1 0.00241042
   vertex 0 1 0
   vertex 14.9549 1 0.00314711
  endloop
 endfacet
 facet normal 0 1 0
  outer loop
   vertex 14.9549 1 0.00314711
   vertex 0 1 0
   vertex 14.9493 1 0.00398136
  endloop
 endfacet
 facet normal 0 1 0
  outer loop
   vertex 14.9493 1 0.00398136
   vertex 0 1 0
   vertex 14.9437 1 0.0049129
  endloop
 endfacet
 facet normal 0 1 0
  outer loop
   vertex 14.9437 1 0.0049129
   vertex 0 1 0
   vertex 14.9381 1 0.00594145
  endloop
 endfacet
 facet normal 0 1 0
  outer loop
   vertex 14.9381 1 0.00594145
   vertex 0 1 0
   vertex 14.9326 1 0.00706671
  endloop
 endfacet
 facet normal 0 1 0
  outer loop
   vertex 14.9326 1 0.00706671
   vertex 0 1 0
   vertex 14.9271 1 0.00828833
  endloop
 endfacet
 facet normal 0 1 0
  outer loop
   vertex 14.9271 1 0.00828833
   vertex 0 1 0
   vertex 14.9216 1 0.00960594
  endloop
 endfacet
 facet normal 0 1 0
  outer loop
   vertex 14.9216 1 0.00960594
   vertex 0 1 0
   vertex 14.9161 1 0.0110191
  endloop
 endfacet
 facet normal 0 1 0
  outer loop
   vertex 30 1 0
   vertex 15 1 0
   vertex 15.0057 1 4.9252e-05
  endloop
 endfacet
 facet normal 0 1 0
  outer loop
   vertex 30 1 0
   vertex 15.0057 1 4.9252e-05
   vertex 15.0113 1 0.000196993
  endloop
 endfacet
 facet normal 0 1 0
  outer loop
   vertex 30 1 0
   vertex 15.0113 1 0.000196993
   vertex 15.017 1 0.000443178
  endloop
 endfacet
 facet normal 0 1 0
  outer loop
   vertex 30 1 0
   vertex 15.017 1 0.000443178
   vertex 15.0226 1 0.000787733
  endloop
 endfacet
 facet normal 0 1 0
  outer loop
   vertex 30 1 0
   vertex 15.0226 1 0.000787733
   vertex 15.0283 1 0.00123055
  endloop
 endfacet
 facet normal 0 1 0
  outer loop
   vertex 30 1 0
   vertex 15.0283 1 0.00123055
   vertex 15.0339 1 0.0017715
  endloop
 endfacet
 facet normal 0 1 0
  outer loop
   vertex 30 1 0
   vertex 15.0339 1 0.0017715
   vertex 15.0395 1 0.00241042
  endloop
 endfacet
 facet normal 0 1 0
  outer loop
   vertex 30 1 0
   vertex 15.0395 1 0.00241042
   vertex 15.0451 1 0.00314711
  endloop
 endfacet
 facet normal 0 1 0
  outer loop
   vertex 30 1 0
   vertex 15.0451 1 0.00314711
   vertex 15.0507 1 0.00398136
  endloop
 endfacet
 facet normal 0 1 0
  outer loop
   vertex 30 1 0
   vertex 15.0507 1 0.00398136
   vertex 15.0563 1 0.0049129
  endloop
 endfacet
 facet normal 0 1 0
  outer loop
   vertex 30 1 0
   vertex 15.0563 1 0.0049129
   vertex 15.0619 1 0.00594145
  endloop
 endfacet
endsolid trasero(Meshed)
